Comic Neue Angular Bold.ufo
<glyph name="quotedbl" format="1">
  <advance width="338"/>
  <unicode hex="0022"/>
  <outline>
    <contour>
      <point x="135" y="467" type="line"/>
      <point x="135" y="678" type="line"/>
      <point x="40" y="660" type="line"/>
      <point x="40" y="450" type="line"/>
    </contour>
    <contour>
      <point x="284" y="467" type="line"/>
      <point x="284" y="678" type="line"/>
      <point x="189" y="660" type="line"/>
      <point x="189" y="450" type="line"/>
    </contour>
  </outline>
</glyph>
<glyph name="numbersign" format="1">
  <advance width="777"/>
  <unicode hex="0023"/>
  <outline>
    <contour>
      <point x="660" y="392" type="line"/>
      <point x="687" y="486" type="line"/>
      <point x="560" y="486" type="line"/>
      <point x="614" y="677" type="line"/>
      <point x="515" y="670" type="line"/>
      <point x="462" y="486" type="line"/>
      <point x="370" y="486" type="line"/>
      <point x="425" y="678" type="line"/>
      <point x="325" y="671" type="line"/>
      <point x="271" y="486" type="line"/>
      <point x="118" y="486" type="line"/>
      <point x="91" y="392" type="line"/>
      <point x="244" y="392" type="line"/>
      <point x="214" y="287" type="line"/>
      <point x="82" y="287" type="line"/>
      <point x="55" y="193" type="line"/>
      <point x="186" y="193" type="line"/>
      <point x="131" y="-2" type="line"/>
      <point x="230" y="5" type="line"/>
      <point x="284" y="193" type="line"/>
      <point x="377" y="193" type="line"/>
      <point x="322" y="-2" type="line"/>
      <point x="421" y="5" type="line"/>
      <point x="475" y="193" type="line"/>
      <point x="619" y="193" type="line"/>
      <point x="647" y="287" type="line"/>
      <point x="503" y="287" type="line"/>
      <point x="533" y="392" type="line"/>
    </contour>
    <contour>
      <point x="405" y="287" type="line"/>
      <point x="312" y="287" type="line"/>
      <point x="342" y="392" type="line"/>
      <point x="435" y="392" type="line"/>
    </contour>
  </outline>
</glyph>
<glyph name="dollar" format="1">
  <advance width="631"/>
  <unicode hex="0024"/>
  <outline>
    <contour>
      <point x="356" y="573" type="line"/>
      <point x="404" y="567"/>
      <point x="446" y="545"/>
      <point x="446" y="507" type="curve" smooth="yes"/>
      <point x="446" y="503"/>
      <point x="447" y="484"/>
      <point x="440" y="458" type="curve"/>
      <point x="536" y="477" type="line"/>
      <point x="539" y="498"/>
      <point x="539" y="506"/>
      <point x="539" y="513" type="curve" smooth="yes"/>
      <point x="539" y="630"/>
      <point x="429" y="658"/>
      <point x="356" y="664" type="curve"/>
      <point x="356" y="733" type="line"/>
      <point x="262" y="716" type="line"/>
      <point x="262" y="659" type="line"/>
      <point x="186" y="647"/>
      <point x="95" y="597"/>
      <point x="95" y="487" type="curve" smooth="yes"/>
      <point x="95" y="396"/>
      <point x="177" y="343"/>
      <point x="262" y="314" type="curve"/>
      <point x="262" y="98" type="line"/>
      <point x="218" y="108"/>
      <point x="176" y="139"/>
      <point x="156" y="196" type="curve"/>
      <point x="55" y="180" type="line"/>
      <point x="86" y="85"/>
      <point x="166" y="18"/>
      <point x="262" y="3" type="curve"/>
      <point x="262" y="-73" type="line"/>
      <point x="356" y="-55" type="line"/>
      <point x="356" y="4" type="line"/>
      <point x="458" y="21"/>
      <point x="542" y="89"/>
      <point x="542" y="196" type="curve" smooth="yes"/>
      <point x="542" y="285"/>
      <point x="481" y="347"/>
      <point x="356" y="387" type="curve"/>
    </contour>
    <contour>
      <point x="198" y="512"/>
      <point x="212" y="550"/>
      <point x="262" y="566" type="curve"/>
      <point x="262" y="419" type="line"/>
      <point x="218" y="439"/>
      <point x="198" y="460"/>
      <point x="198" y="487" type="curve" smooth="yes"/>
    </contour>
    <contour>
      <point x="439" y="141"/>
      <point x="393" y="114"/>
      <point x="356" y="102" type="curve"/>
      <point x="356" y="283" type="line"/>
      <point x="403" y="265"/>
      <point x="439" y="243"/>
      <point x="439" y="196" type="curve" smooth="yes"/>
    </contour>
  </outline>
</glyph>
<glyph name="ampersand" format="1">
  <advance width="688"/>
  <unicode hex="0026"/>
  <outline>
    <contour>
      <point x="503" y="170" type="line"/>
      <point x="516" y="198"/>
      <point x="529" y="236"/>
      <point x="542" y="286" type="curve"/>
      <point x="464" y="376" type="line"/>
      <point x="453" y="321"/>
      <point x="444" y="282"/>
      <point x="434" y="252" type="curve"/>
      <point x="344" y="359" type="line"/>
      <point x="395" y="392"/>
      <point x="453" y="430"/>
      <point x="453" y="524" type="curve" smooth="yes"/>
      <point x="453" y="600"/>
      <point x="377" y="673"/>
      <point x="296" y="673" type="curve" smooth="yes"/>
      <point x="215" y="673"/>
      <point x="140" y="601"/>
      <point x="140" y="521" type="curve" smooth="yes"/>
      <point x="140" y="468"/>
      <point x="169" y="419"/>
      <point x="196" y="385" type="curve"/>
      <point x="127" y="345"/>
      <point x="61" y="291"/>
      <point x="61" y="187" type="curve" smooth="yes"/>
      <point x="61" y="70"/>
      <point x="169" y="-4"/>
      <point x="268" y="-4" type="curve" smooth="yes"/>
      <point x="322" y="-4"/>
      <point x="398" y="24"/>
      <point x="450" y="86" type="curve"/>
      <point x="530" y="-9" type="line"/>
      <point x="602" y="51" type="line"/>
    </contour>
    <contour>
      <point x="235" y="554"/>
      <point x="268" y="579"/>
      <point x="296" y="579" type="curve" smooth="yes"/>
      <point x="327" y="579"/>
      <point x="359" y="551"/>
      <point x="359" y="524" type="curve" smooth="yes"/>
      <point x="359" y="497"/>
      <point x="356" y="471"/>
      <point x="282" y="430" type="curve"/>
      <point x="260" y="455"/>
      <point x="235" y="491"/>
      <point x="235" y="521" type="curve" smooth="yes"/>
    </contour>
    <contour>
      <point x="223" y="91"/>
      <point x="155" y="121"/>
      <point x="155" y="187" type="curve" smooth="yes"/>
      <point x="155" y="246"/>
      <point x="206" y="282"/>
      <point x="261" y="312" type="curve"/>
      <point x="387" y="160" type="line"/>
      <point x="353" y="115"/>
      <point x="301" y="91"/>
      <point x="268" y="91" type="curve" smooth="yes"/>
    </contour>
  </outline>
</glyph>
<glyph name="asterisk" format="1">
  <advance width="443"/>
  <unicode hex="002A"/>
  <outline>
    <contour>
      <point x="288" y="514" type="line"/>
      <point x="351" y="534" type="line"/>
      <point x="322" y="626" type="line"/>
      <point x="257" y="605" type="line"/>
      <point x="257" y="673" type="line"/>
      <point x="162" y="673" type="line"/>
      <point x="162" y="605" type="line"/>
      <point x="97" y="626" type="line"/>
      <point x="67" y="535" type="line"/>
      <point x="132" y="514" type="line"/>
      <point x="92" y="460" type="line"/>
      <point x="169" y="404" type="line"/>
      <point x="209" y="459" type="line"/>
      <point x="249" y="404" type="line"/>
      <point x="327" y="460" type="line"/>
    </contour>
  </outline>
</glyph>
<glyph name="plus" format="1">
  <advance width="467"/>
  <unicode hex="002B"/>
  <outline>
    <contour>
      <point x="402" y="298" type="line"/>
      <point x="270" y="298" type="line"/>
      <point x="270" y="426" type="line"/>
      <point x="176" y="407" type="line"/>
      <point x="176" y="298" type="line"/>
      <point x="61" y="298" type="line"/>
      <point x="45" y="204" type="line"/>
      <point x="176" y="204" type="line"/>
      <point x="176" y="73" type="line"/>
      <point x="270" y="89" type="line"/>
      <point x="270" y="204" type="line"/>
      <point x="384" y="204" type="line"/>
    </contour>
  </outline>
</glyph>
<glyph name="period" format="1">
  <advance width="248"/>
  <unicode hex="002E"/>
  <outline>
    <contour>
      <point x="181" y="133" type="line"/>
      <point x="68" y="118" type="line"/>
      <point x="54" y="-4" type="line"/>
      <point x="169" y="12" type="line"/>
    </contour>
  </outline>
</glyph>
<glyph name="slash" format="1">
  <advance width="518"/>
  <unicode hex="002F"/>
  <outline>
    <contour>
      <point x="381" y="675" type="line"/>
      <point x="11" y="0" type="line"/>
      <point x="118" y="0" type="line"/>
      <point x="488" y="675" type="line"/>
    </contour>
  </outline>
</glyph>
<glyph name="one" format="1">
  <advance width="440"/>
  <unicode hex="0031"/>
  <outline>
    <contour>
      <point x="272" y="95" type="line"/>
      <point x="282" y="694" type="line"/>
      <point x="45" y="481" type="line"/>
      <point x="109" y="411" type="line"/>
      <point x="185" y="479" type="line"/>
      <point x="178" y="95" type="line"/>
      <point x="79" y="95" type="line"/>
      <point x="63" y="0" type="line"/>
      <point x="349" y="0" type="line"/>
      <point x="366" y="95" type="line"/>
    </contour>
  </outline>
</glyph>
<glyph name="three" format="1">
  <advance width="575"/>
  <unicode hex="0033"/>
  <outline>
    <contour>
      <point x="470" y="597"/>
      <point x="382" y="667"/>
      <point x="269" y="667" type="curve" smooth="yes"/>
      <point x="178" y="667"/>
      <point x="102" y="601"/>
      <point x="76" y="577" type="curve"/>
      <point x="141" y="508" type="line"/>
      <point x="153" y="520"/>
      <point x="211" y="572"/>
      <point x="269" y="572" type="curve" smooth="yes"/>
      <point x="334" y="572"/>
      <point x="373" y="539"/>
      <point x="373" y="509" type="curve" smooth="yes"/>
      <point x="373" y="459"/>
      <point x="310" y="419"/>
      <point x="202" y="413" type="curve"/>
      <point x="206" y="320" type="line"/>
      <point x="302" y="320"/>
      <point x="388" y="294"/>
      <point x="388" y="207" type="curve" smooth="yes"/>
      <point x="388" y="94"/>
      <point x="275" y="91"/>
      <point x="274" y="91" type="curve" smooth="yes"/>
      <point x="218" y="91"/>
      <point x="167" y="128"/>
      <point x="149" y="194" type="curve"/>
      <point x="58" y="156" type="line"/>
      <point x="93" y="46"/>
      <point x="187" y="-4"/>
      <point x="274" y="-4" type="curve" smooth="yes"/>
      <point x="356" y="-4"/>
      <point x="484" y="54"/>
      <point x="484" y="207" type="curve" smooth="yes"/>
      <point x="484" y="285"/>
      <point x="441" y="339"/>
      <point x="386" y="374" type="curve"/>
      <point x="429" y="403"/>
      <point x="470" y="447"/>
      <point x="470" y="509" type="curve" smooth="yes"/>
    </contour>
  </outline>
</glyph>
<glyph name="eight" format="1">
  <advance width="573"/>
  <unicode hex="0038"/>
  <outline>
    <contour>
      <point x="394" y="-3"/>
      <point x="483" y="82"/>
      <point x="483" y="195" type="curve" smooth="yes"/>
      <point x="483" y="265"/>
      <point x="450" y="323"/>
      <point x="389" y="364" type="curve"/>
      <point x="431" y="392"/>
      <point x="465" y="433"/>
      <point x="467" y="500" type="curve" smooth="yes"/>
      <point x="467" y="599"/>
      <point x="391" y="669"/>
      <point x="283" y="669" type="curve" smooth="yes"/>
      <point x="176" y="669"/>
      <point x="93" y="602"/>
      <point x="93" y="487" type="curve" smooth="yes"/>
      <point x="93" y="422"/>
      <point x="122" y="385"/>
      <point x="164" y="357" type="curve"/>
      <point x="114" y="325"/>
      <point x="64" y="272"/>
      <point x="63" y="186" type="curve" smooth="yes"/>
      <point x="63" y="77"/>
      <point x="150" y="-3"/>
      <point x="273" y="-3" type="curve" smooth="yes"/>
    </contour>
    <contour>
      <point x="326" y="292"/>
      <point x="388" y="254"/>
      <point x="388" y="192" type="curve" smooth="yes"/>
      <point x="388" y="124"/>
      <point x="326" y="93"/>
      <point x="273" y="93" type="curve" smooth="yes"/>
      <point x="209" y="93"/>
      <point x="158" y="129"/>
      <point x="158" y="180" type="curve" smooth="yes"/>
      <point x="158" y="254"/>
      <point x="215" y="286"/>
      <point x="272" y="310" type="curve"/>
    </contour>
    <contour>
      <point x="223" y="430"/>
      <point x="187" y="453"/>
      <point x="187" y="490" type="curve" smooth="yes"/>
      <point x="187" y="536"/>
      <point x="225" y="573"/>
      <point x="283" y="573" type="curve" smooth="yes"/>
      <point x="332" y="573"/>
      <point x="372" y="547"/>
      <point x="372" y="507" type="curve" smooth="yes"/>
      <point x="372" y="459"/>
      <point x="344" y="437"/>
      <point x="286" y="411" type="curve"/>
    </contour>
  </outline>
</glyph>
<glyph name="equal" format="1">
  <advance width="531"/>
  <unicode hex="003D"/>
  <outline>
    <contour>
      <point x="426" y="292" type="line"/>
      <point x="443" y="386" type="line"/>
      <point x="84" y="386" type="line"/>
      <point x="67" y="292" type="line"/>
    </contour>
    <contour>
      <point x="426" y="113" type="line"/>
      <point x="443" y="206" type="line"/>
      <point x="84" y="206" type="line"/>
      <point x="67" y="113" type="line"/>
    </contour>
  </outline>
</glyph>
<glyph name="question" format="1">
  <advance width="568"/>
  <unicode hex="003F"/>
  <outline>
    <contour>
      <point x="244" y="124" type="line"/>
      <point x="146" y="107" type="line"/>
      <point x="137" y="-5" type="line"/>
      <point x="234" y="12" type="line"/>
    </contour>
    <contour>
      <point x="157" y="694"/>
      <point x="74" y="603"/>
      <point x="49" y="566" type="curve"/>
      <point x="120" y="495" type="line"/>
      <point x="127" y="507"/>
      <point x="183" y="599"/>
      <point x="269" y="599" type="curve" smooth="yes"/>
      <point x="352" y="599"/>
      <point x="386" y="544"/>
      <point x="386" y="489" type="curve" smooth="yes"/>
      <point x="386" y="432"/>
      <point x="340" y="396"/>
      <point x="301" y="362" type="curve" smooth="yes"/>
      <point x="158" y="235" type="line"/>
      <point x="206" y="149" type="line"/>
      <point x="363" y="290" type="line" smooth="yes"/>
      <point x="411" y="333"/>
      <point x="480" y="390"/>
      <point x="480" y="489" type="curve" smooth="yes"/>
      <point x="480" y="614"/>
      <point x="400" y="694"/>
      <point x="266" y="694" type="curve" smooth="yes"/>
    </contour>
  </outline>
</glyph>
<glyph name="at" format="1">
  <advance width="854"/>
  <unicode hex="0040"/>
  <outline>
    <contour>
      <point x="310" y="7"/>
      <point x="166" y="92"/>
      <point x="166" y="252" type="curve" smooth="yes"/>
      <point x="166" y="423"/>
      <point x="295" y="512"/>
      <point x="424" y="512" type="curve" smooth="yes"/>
      <point x="577" y="512"/>
      <point x="656" y="397"/>
      <point x="656" y="282" type="curve" smooth="yes"/>
      <point x="656" y="226"/>
      <point x="633" y="180"/>
      <point x="583" y="180" type="curve" smooth="yes"/>
      <point x="543" y="180"/>
      <point x="519" y="202"/>
      <point x="519" y="229" type="curve" smooth="yes"/>
      <point x="519" y="238"/>
      <point x="519" y="245"/>
      <point x="527" y="272" type="curve"/>
      <point x="441" y="304" type="line"/>
      <point x="427" y="272"/>
      <point x="387" y="192"/>
      <point x="349" y="192" type="curve" smooth="yes"/>
      <point x="331" y="192"/>
      <point x="316" y="207"/>
      <point x="316" y="238" type="curve" smooth="yes"/>
      <point x="316" y="289"/>
      <point x="351" y="341"/>
      <point x="399" y="341" type="curve" smooth="yes"/>
      <point x="415" y="341"/>
      <point x="428" y="341"/>
      <point x="457" y="321" type="curve"/>
      <point x="513" y="397" type="line"/>
      <point x="467" y="431"/>
      <point x="436" y="435"/>
      <point x="399" y="435" type="curve" smooth="yes"/>
      <point x="297" y="435"/>
      <point x="222" y="340"/>
      <point x="222" y="238" type="curve" smooth="yes"/>
      <point x="222" y="149"/>
      <point x="274" y="98"/>
      <point x="349" y="98" type="curve" smooth="yes"/>
      <point x="391" y="98"/>
      <point x="424" y="118"/>
      <point x="451" y="146" type="curve"/>
      <point x="480" y="111"/>
      <point x="534" y="86"/>
      <point x="582" y="85" type="curve" smooth="yes"/>
      <point x="689" y="85"/>
      <point x="750" y="174"/>
      <point x="750" y="282" type="curve" smooth="yes"/>
      <point x="750" y="467"/>
      <point x="607" y="607"/>
      <point x="424" y="607" type="curve" smooth="yes"/>
      <point x="223" y="607"/>
      <point x="71" y="455"/>
      <point x="71" y="252" type="curve" smooth="yes"/>
      <point x="71" y="66"/>
      <point x="227" y="-86"/>
      <point x="416" y="-86" type="curve" smooth="yes"/>
      <point x="555" y="-86"/>
      <point x="660" y="7"/>
      <point x="672" y="18" type="curve"/>
      <point x="580" y="61" type="line"/>
      <point x="548" y="42"/>
      <point x="497" y="7"/>
      <point x="416" y="7" type="curve" smooth="yes"/>
    </contour>
  </outline>
</glyph>
<glyph name="C" format="1">
  <advance width="657"/>
  <unicode hex="0043"/>
  <outline>
    <contour>
      <point x="440" y="-1"/>
      <point x="538" y="56"/>
      <point x="595" y="149" type="curve"/>
      <point x="523" y="221" type="line"/>
      <point x="482" y="140"/>
      <point x="414" y="95"/>
      <point x="335" y="95" type="curve" smooth="yes"/>
      <point x="229" y="95"/>
      <point x="143" y="186"/>
      <point x="143" y="296" type="curve" smooth="yes"/>
      <point x="143" y="411"/>
      <point x="232" y="585"/>
      <point x="341" y="585" type="curve" smooth="yes"/>
      <point x="400" y="585"/>
      <point x="438" y="561"/>
      <point x="460" y="539" type="curve"/>
      <point x="460" y="502" type="line"/>
      <point x="549" y="502" type="line"/>
      <point x="549" y="665" type="line"/>
      <point x="460" y="665" type="line"/>
      <point x="460" y="651" type="line"/>
      <point x="426" y="667"/>
      <point x="386" y="681"/>
      <point x="346" y="681" type="curve" smooth="yes"/>
      <point x="167" y="681"/>
      <point x="48" y="454"/>
      <point x="48" y="294" type="curve" smooth="yes"/>
      <point x="48" y="127"/>
      <point x="179" y="-1"/>
      <point x="335" y="-1" type="curve" smooth="yes"/>
    </contour>
  </outline>
</glyph>
<glyph name="D" format="1">
  <advance width="642"/>
  <unicode hex="0044"/>
  <outline>
    <contour>
      <point x="61" y="7" type="line"/>
      <point x="112" y="-7"/>
      <point x="180" y="-14"/>
      <point x="216" y="-14" type="curve" smooth="yes"/>
      <point x="439" y="-14"/>
      <point x="565" y="101"/>
      <point x="565" y="304" type="curve" smooth="yes"/>
      <point x="565" y="451"/>
      <point x="488" y="567"/>
      <point x="365" y="630" type="curve"/>
      <point x="307" y="656"/>
      <point x="218" y="680"/>
      <point x="108" y="680" type="curve" smooth="yes"/>
      <point x="61" y="680" type="line"/>
    </contour>
    <contour>
      <point x="335" y="89"/>
      <point x="265" y="83"/>
      <point x="216" y="83" type="curve" smooth="yes"/>
      <point x="196" y="83"/>
      <point x="174" y="84"/>
      <point x="158" y="86" type="curve"/>
      <point x="158" y="583" type="line"/>
      <point x="206" y="581"/>
      <point x="264" y="566"/>
      <point x="322" y="541" type="curve"/>
      <point x="417" y="496"/>
      <point x="468" y="414"/>
      <point x="468" y="304" type="curve" smooth="yes"/>
      <point x="468" y="219"/>
      <point x="441" y="158"/>
      <point x="386" y="123" type="curve" smooth="yes"/>
    </contour>
  </outline>
</glyph>
<glyph name="E" format="1">
  <advance width="637"/>
  <unicode hex="0045"/>
  <outline>
    <contour>
      <point x="160" y="99" type="line"/>
      <point x="160" y="304" type="line"/>
      <point x="497" y="304" type="line"/>
      <point x="526" y="402" type="line"/>
      <point x="160" y="402" type="line"/>
      <point x="160" y="582" type="line"/>
      <point x="543" y="582" type="line"/>
      <point x="560" y="681" type="line"/>
      <point x="61" y="681" type="line"/>
      <point x="61" y="0" type="line"/>
      <point x="535" y="0" type="line"/>
      <point x="570" y="99" type="line"/>
    </contour>
  </outline>
</glyph>
<glyph name="G" format="1">
  <advance width="770"/>
  <unicode hex="0047"/>
  <outline>
    <contour>
      <point x="686" y="299" type="line"/>
      <point x="641" y="310"/>
      <point x="596" y="316"/>
      <point x="557" y="316" type="curve" smooth="yes"/>
      <point x="501" y="316"/>
      <point x="437" y="306"/>
      <point x="381" y="288" type="curve"/>
      <point x="381" y="182" type="line"/>
      <point x="429" y="202"/>
      <point x="495" y="218"/>
      <point x="547" y="220" type="curve"/>
      <point x="517" y="141"/>
      <point x="451" y="95"/>
      <point x="356" y="95" type="curve" smooth="yes"/>
      <point x="224" y="95"/>
      <point x="155" y="220"/>
      <point x="155" y="341" type="curve" smooth="yes"/>
      <point x="155" y="424"/>
      <point x="220" y="586"/>
      <point x="374" y="586" type="curve" smooth="yes"/>
      <point x="477" y="586"/>
      <point x="541" y="524"/>
      <point x="565" y="430" type="curve"/>
      <point x="660" y="449" type="line"/>
      <point x="626" y="587"/>
      <point x="527" y="682"/>
      <point x="374" y="682" type="curve" smooth="yes"/>
      <point x="185" y="682"/>
      <point x="58" y="500"/>
      <point x="58" y="341" type="curve" smooth="yes"/>
      <point x="58" y="149"/>
      <point x="181" y="-2"/>
      <point x="356" y="-2" type="curve" smooth="yes"/>
      <point x="561" y="-2"/>
      <point x="626" y="142"/>
      <point x="645" y="210" type="curve"/>
      <point x="660" y="207"/>
      <point x="673" y="202"/>
      <point x="686" y="197" type="curve"/>
    </contour>
  </outline>
</glyph>
<glyph name="H" format="1">
  <advance width="709"/>
  <unicode hex="0048"/>
  <outline>
    <contour>
      <point x="525" y="668" type="line"/>
      <point x="525" y="422" type="line"/>
      <point x="161" y="370" type="line"/>
      <point x="161" y="686" type="line"/>
      <point x="62" y="668" type="line"/>
      <point x="62" y="-9" type="line"/>
      <point x="161" y="25" type="line"/>
      <point x="161" y="270" type="line"/>
      <point x="525" y="322" type="line"/>
      <point x="525" y="-9" type="line"/>
      <point x="624" y="25" type="line"/>
      <point x="624" y="686" type="line"/>
    </contour>
  </outline>
</glyph>
<glyph name="I" format="1">
  <advance width="463"/>
  <unicode hex="0049"/>
  <outline>
    <contour>
      <point x="382" y="582" type="line"/>
      <point x="400" y="681" type="line"/>
      <point x="65" y="681" type="line"/>
      <point x="48" y="582" type="line"/>
      <point x="177" y="582" type="line"/>
      <point x="177" y="99" type="line"/>
      <point x="65" y="99" type="line"/>
      <point x="48" y="0" type="line"/>
      <point x="382" y="0" type="line"/>
      <point x="400" y="99" type="line"/>
      <point x="276" y="99" type="line"/>
      <point x="276" y="582" type="line"/>
    </contour>
  </outline>
</glyph>
<glyph name="L" format="1">
  <advance width="513"/>
  <unicode hex="004C"/>
  <outline>
    <contour>
      <point x="59" y="-2" type="line"/>
      <point x="480" y="29" type="line"/>
      <point x="475" y="128" type="line"/>
      <point x="158" y="104" type="line"/>
      <point x="158" y="683" type="line"/>
      <point x="59" y="665" type="line"/>
    </contour>
  </outline>
</glyph>
<glyph name="O" format="1">
  <advance width="686"/>
  <unicode hex="004F"/>
  <outline>
    <contour>
      <point x="470" y="-2"/>
      <point x="607" y="166"/>
      <point x="607" y="365" type="curve" smooth="yes"/>
      <point x="607" y="538"/>
      <point x="498" y="682"/>
      <point x="351" y="682" type="curve" smooth="yes"/>
      <point x="194" y="682"/>
      <point x="57" y="514"/>
      <point x="57" y="315" type="curve" smooth="yes"/>
      <point x="57" y="144"/>
      <point x="163" y="-2"/>
      <point x="312" y="-2" type="curve" smooth="yes"/>
    </contour>
    <contour>
      <point x="442" y="587"/>
      <point x="511" y="475"/>
      <point x="511" y="361" type="curve" smooth="yes"/>
      <point x="511" y="216"/>
      <point x="415" y="93"/>
      <point x="312" y="93" type="curve" smooth="yes"/>
      <point x="220" y="93"/>
      <point x="153" y="194"/>
      <point x="153" y="315" type="curve" smooth="yes"/>
      <point x="153" y="466"/>
      <point x="242" y="587"/>
      <point x="345" y="587" type="curve" smooth="yes"/>
    </contour>
  </outline>
</glyph>
<glyph name="P" format="1">
  <advance width="571"/>
  <unicode hex="0050"/>
  <outline>
    <contour>
      <point x="158" y="223" type="line"/>
      <point x="327" y="233"/>
      <point x="526" y="298"/>
      <point x="526" y="463" type="curve" smooth="yes"/>
      <point x="526" y="650"/>
      <point x="327" y="679"/>
      <point x="188" y="679" type="curve" smooth="yes"/>
      <point x="155" y="679"/>
      <point x="90" y="675"/>
      <point x="60" y="673" type="curve"/>
      <point x="60" y="-5" type="line"/>
      <point x="158" y="12" type="line"/>
    </contour>
    <contour>
      <point x="158" y="580" type="line"/>
      <point x="178" y="580" type="line" smooth="yes"/>
      <point x="375" y="580"/>
      <point x="427" y="524"/>
      <point x="427" y="457" type="curve" smooth="yes"/>
      <point x="427" y="387"/>
      <point x="324" y="334"/>
      <point x="158" y="321" type="curve"/>
    </contour>
  </outline>
</glyph>
<glyph name="Q" format="1">
  <advance width="747"/>
  <unicode hex="0051"/>
  <outline>
    <contour>
      <point x="572" y="114" type="line"/>
      <point x="633" y="181"/>
      <point x="665" y="266"/>
      <point x="665" y="364" type="curve" smooth="yes"/>
      <point x="665" y="536"/>
      <point x="544" y="679"/>
      <point x="379" y="679" type="curve" smooth="yes"/>
      <point x="203" y="679"/>
      <point x="50" y="512"/>
      <point x="50" y="314" type="curve" smooth="yes"/>
      <point x="50" y="141"/>
      <point x="172" y="-1"/>
      <point x="336" y="-1" type="curve" smooth="yes"/>
      <point x="393" y="-1"/>
      <point x="449" y="17"/>
      <point x="498" y="48" type="curve"/>
      <point x="638" y="-42" type="line"/>
      <point x="681" y="42" type="line"/>
    </contour>
    <contour>
      <point x="395" y="230" type="line"/>
      <point x="305" y="175" type="line"/>
      <point x="407" y="111" type="line"/>
      <point x="383" y="100"/>
      <point x="362" y="95"/>
      <point x="336" y="95" type="curve" smooth="yes"/>
      <point x="230" y="95"/>
      <point x="153" y="191"/>
      <point x="153" y="314" type="curve" smooth="yes"/>
      <point x="153" y="461"/>
      <point x="255" y="582"/>
      <point x="372" y="582" type="curve" smooth="yes"/>
      <point x="483" y="582"/>
      <point x="563" y="471"/>
      <point x="563" y="358" type="curve" smooth="yes"/>
      <point x="563" y="286"/>
      <point x="532" y="218"/>
      <point x="489" y="170" type="curve"/>
    </contour>
  </outline>
</glyph>
<glyph name="S" format="1">
  <advance width="625"/>
  <unicode hex="0053"/>
  <outline>
    <contour>
      <point x="433" y="273"/>
      <point x="442" y="229"/>
      <point x="442" y="199" type="curve" smooth="yes"/>
      <point x="442" y="136"/>
      <point x="381" y="95"/>
      <point x="306" y="95" type="curve" smooth="yes"/>
      <point x="248" y="95"/>
      <point x="178" y="128"/>
      <point x="152" y="200" type="curve"/>
      <point x="48" y="184" type="line"/>
      <point x="85" y="73"/>
      <point x="187" y="-1"/>
      <point x="307" y="-1" type="curve" smooth="yes"/>
      <point x="412" y="-1"/>
      <point x="548" y="63"/>
      <point x="548" y="200" type="curve" smooth="yes"/>
      <point x="548" y="298"/>
      <point x="475" y="365"/>
      <point x="327" y="406" type="curve" smooth="yes"/>
      <point x="240" y="430"/>
      <point x="195" y="459"/>
      <point x="195" y="502" type="curve" smooth="yes"/>
      <point x="195" y="537"/>
      <point x="217" y="588"/>
      <point x="330" y="588" type="curve" smooth="yes"/>
      <point x="375" y="588"/>
      <point x="450" y="572"/>
      <point x="450" y="513" type="curve" smooth="yes"/>
      <point x="450" y="508"/>
      <point x="449" y="484"/>
      <point x="442" y="470" type="curve"/>
      <point x="541" y="488" type="line"/>
      <point x="545" y="511"/>
      <point x="545" y="518"/>
      <point x="545" y="525" type="curve" smooth="yes"/>
      <point x="545" y="646"/>
      <point x="424" y="681"/>
      <point x="330" y="681" type="curve" smooth="yes"/>
      <point x="225" y="681"/>
      <point x="89" y="647"/>
      <point x="89" y="496" type="curve" smooth="yes"/>
      <point x="89" y="391"/>
      <point x="203" y="334"/>
      <point x="302" y="308" type="curve" smooth="yes"/>
    </contour>
  </outline>
</glyph>
<glyph name="T" format="1">
  <advance width="548"/>
  <unicode hex="0054"/>
  <outline>
    <contour>
      <point x="208" y="-5" type="line"/>
      <point x="308" y="12" type="line"/>
      <point x="308" y="582" type="line"/>
      <point x="522" y="582" type="line"/>
      <point x="522" y="681" type="line"/>
      <point x="9" y="681" type="line"/>
      <point x="9" y="582" type="line"/>
      <point x="208" y="582" type="line"/>
    </contour>
  </outline>
</glyph>
<glyph name="V" format="1">
  <advance width="566"/>
  <unicode hex="0056"/>
  <outline>
    <contour>
      <point x="261" y="174" type="line"/>
      <point x="96" y="687" type="line"/>
      <point x="2" y="652" type="line"/>
      <point x="212" y="-3" type="line"/>
      <point x="305" y="12" type="line"/>
      <point x="546" y="650" type="line"/>
      <point x="454" y="688" type="line"/>
    </contour>
  </outline>
</glyph>
<glyph name="bracketright" format="1">
  <advance width="341"/>
  <unicode hex="005D"/>
  <outline>
    <contour>
      <point x="79" y="778" type="line"/>
      <point x="62" y="683" type="line"/>
      <point x="179" y="683" type="line"/>
      <point x="179" y="-18" type="line"/>
      <point x="65" y="-18" type="line"/>
      <point x="48" y="-113" type="line"/>
      <point x="274" y="-113" type="line"/>
      <point x="274" y="778" type="line"/>
    </contour>
  </outline>
</glyph>
<glyph name="b" format="1">
  <advance width="554"/>
  <unicode hex="0062"/>
  <outline>
    <contour>
      <point x="249" y="491"/>
      <point x="197" y="476"/>
      <point x="158" y="448" type="curve"/>
      <point x="158" y="679" type="line"/>
      <point x="62" y="661" type="line"/>
      <point x="62" y="12" type="line"/>
      <point x="158" y="-5" type="line"/>
      <point x="158" y="16" type="line"/>
      <point x="187" y="8"/>
      <point x="225" y="1"/>
      <point x="261" y="1" type="curve" smooth="yes"/>
      <point x="479" y="1"/>
      <point x="483" y="214"/>
      <point x="483" y="266" type="curve" smooth="yes"/>
      <point x="483" y="372"/>
      <point x="427" y="491"/>
      <point x="311" y="491" type="curve" smooth="yes"/>
    </contour>
    <contour>
      <point x="217" y="95"/>
      <point x="179" y="105"/>
      <point x="158" y="112" type="curve"/>
      <point x="158" y="287" type="line" smooth="yes"/>
      <point x="158" y="346"/>
      <point x="215" y="395"/>
      <point x="298" y="395" type="curve" smooth="yes"/>
      <point x="367" y="395"/>
      <point x="389" y="323"/>
      <point x="389" y="266" type="curve" smooth="yes"/>
      <point x="389" y="169"/>
      <point x="352" y="95"/>
      <point x="254" y="95" type="curve" smooth="yes"/>
    </contour>
  </outline>
</glyph>
<glyph name="d" format="1">
  <advance width="552"/>
  <unicode hex="0064"/>
  <outline>
    <contour>
      <point x="369" y="667" type="line"/>
      <point x="365" y="479" type="line"/>
      <point x="334" y="488"/>
      <point x="300" y="496"/>
      <point x="270" y="496" type="curve" smooth="yes"/>
      <point x="76" y="496"/>
      <point x="48" y="316"/>
      <point x="48" y="228" type="curve" smooth="yes"/>
      <point x="48" y="118"/>
      <point x="104" y="5"/>
      <point x="226" y="5" type="curve" smooth="yes"/>
      <point x="283" y="5"/>
      <point x="322" y="23"/>
      <point x="356" y="47" type="curve"/>
      <point x="356" y="-5" type="line"/>
      <point x="452" y="12" type="line"/>
      <point x="467" y="684" type="line"/>
    </contour>
    <contour>
      <point x="359" y="171" type="line" smooth="yes"/>
      <point x="358" y="149"/>
      <point x="305" y="95"/>
      <point x="226" y="95" type="curve" smooth="yes"/>
      <point x="158" y="95"/>
      <point x="144" y="179"/>
      <point x="144" y="231" type="curve" smooth="yes"/>
      <point x="144" y="299"/>
      <point x="162" y="402"/>
      <point x="265" y="402" type="curve" smooth="yes"/>
      <point x="307" y="402"/>
      <point x="344" y="386"/>
      <point x="364" y="376" type="curve"/>
    </contour>
  </outline>
</glyph>
<glyph name="f" format="1">
  <advance width="358"/>
  <unicode hex="0066"/>
  <outline>
    <contour>
      <point x="347" y="673" type="line"/>
      <point x="307" y="677"/>
      <point x="296" y="677"/>
      <point x="285" y="677" type="curve" smooth="yes"/>
      <point x="155" y="677"/>
      <point x="91" y="630"/>
      <point x="85" y="502" type="curve"/>
      <point x="18" y="502" type="line"/>
      <point x="2" y="410" type="line"/>
      <point x="84" y="410" type="line"/>
      <point x="84" y="-5" type="line"/>
      <point x="180" y="12" type="line"/>
      <point x="180" y="410" type="line"/>
      <point x="288" y="410" type="line"/>
      <point x="309" y="502" type="line"/>
      <point x="186" y="502" type="line"/>
      <point x="189" y="561"/>
      <point x="216" y="584"/>
      <point x="308" y="582" type="curve"/>
    </contour>
  </outline>
</glyph>
<glyph name="i" format="1">
  <advance width="247"/>
  <unicode hex="0069"/>
  <outline>
    <contour>
      <point x="66" y="489" type="line"/>
      <point x="66" y="-5" type="line"/>
      <point x="165" y="12" type="line"/>
      <point x="165" y="505" type="line"/>
    </contour>
    <contour>
      <point x="170" y="677" type="line"/>
      <point x="73" y="660" type="line"/>
      <point x="64" y="538" type="line"/>
      <point x="162" y="555" type="line"/>
    </contour>
  </outline>
</glyph>
<glyph name="k" format="1">
  <advance width="520"/>
  <unicode hex="006B"/>
  <outline>
    <contour>
      <point x="388" y="539" type="line"/>
      <point x="325" y="458"/>
      <point x="223" y="354"/>
      <point x="160" y="300" type="curve"/>
      <point x="159" y="679" type="line"/>
      <point x="62" y="662" type="line"/>
      <point x="63" y="-5" type="line"/>
      <point x="161" y="12" type="line"/>
      <point x="160" y="193" type="line"/>
      <point x="219" y="233" type="line"/>
      <point x="263" y="183"/>
      <point x="337" y="87"/>
      <point x="403" y="-11" type="curve"/>
      <point x="478" y="54" type="line"/>
      <point x="292" y="291" type="line"/>
      <point x="340" y="336"/>
      <point x="424" y="430"/>
      <point x="465" y="484" type="curve"/>
    </contour>
  </outline>
</glyph>
<glyph name="m" format="1">
  <advance width="843"/>
  <unicode hex="006D"/>
  <outline>
    <contour>
      <point x="228" y="381"/>
      <point x="274" y="420"/>
      <point x="306" y="420" type="curve" smooth="yes"/>
      <point x="327" y="420"/>
      <point x="366" y="411"/>
      <point x="366" y="326" type="curve" smooth="yes"/>
      <point x="366" y="-5" type="line"/>
      <point x="463" y="12" type="line"/>
      <point x="463" y="269" type="line" smooth="yes"/>
      <point x="463" y="358"/>
      <point x="538" y="420"/>
      <point x="581" y="420" type="curve" smooth="yes"/>
      <point x="602" y="420"/>
      <point x="641" y="411"/>
      <point x="641" y="326" type="curve" smooth="yes"/>
      <point x="641" y="-5" type="line"/>
      <point x="738" y="12" type="line"/>
      <point x="738" y="319" type="line" smooth="yes"/>
      <point x="738" y="477"/>
      <point x="657" y="510"/>
      <point x="591" y="510" type="curve" smooth="yes"/>
      <point x="545" y="510"/>
      <point x="487" y="479"/>
      <point x="443" y="432" type="curve"/>
      <point x="414" y="495"/>
      <point x="363" y="510"/>
      <point x="316" y="510" type="curve" smooth="yes"/>
      <point x="260" y="510"/>
      <point x="210" y="471"/>
      <point x="164" y="417" type="curve"/>
      <point x="164" y="497" type="line"/>
      <point x="68" y="480" type="line"/>
      <point x="68" y="-5" type="line"/>
      <point x="164" y="12" type="line"/>
      <point x="164" y="262" type="line"/>
      <point x="164" y="262"/>
      <point x="165" y="278"/>
      <point x="172" y="289" type="curve" smooth="yes"/>
    </contour>
  </outline>
</glyph>
<glyph name="o" format="1">
  <advance width="561"/>
  <unicode hex="006F"/>
  <outline>
    <contour>
      <point x="382" y="0"/>
      <point x="489" y="122"/>
      <point x="489" y="268" type="curve" smooth="yes"/>
      <point x="489" y="393"/>
      <point x="399" y="500"/>
      <point x="282" y="500" type="curve" smooth="yes"/>
      <point x="155" y="500"/>
      <point x="48" y="377"/>
      <point x="48" y="232" type="curve" smooth="yes"/>
      <point x="48" y="105"/>
      <point x="137" y="0"/>
      <point x="254" y="0" type="curve" smooth="yes"/>
    </contour>
    <contour>
      <point x="341" y="411"/>
      <point x="391" y="343"/>
      <point x="391" y="264" type="curve" smooth="yes"/>
      <point x="391" y="170"/>
      <point x="325" y="89"/>
      <point x="254" y="89" type="curve" smooth="yes"/>
      <point x="189" y="89"/>
      <point x="145" y="156"/>
      <point x="145" y="234" type="curve" smooth="yes"/>
      <point x="145" y="328"/>
      <point x="206" y="411"/>
      <point x="278" y="411" type="curve" smooth="yes"/>
    </contour>
  </outline>
</glyph>
<glyph name="t" format="1">
  <advance width="399"/>
  <unicode hex="0074"/>
  <outline>
    <contour>
      <point x="365" y="502" type="line"/>
      <point x="240" y="502" type="line"/>
      <point x="240" y="660" type="line"/>
      <point x="142" y="644" type="line"/>
      <point x="142" y="502" type="line"/>
      <point x="17" y="502" type="line"/>
      <point x="17" y="406" type="line"/>
      <point x="142" y="406" type="line"/>
      <point x="142" y="-5" type="line"/>
      <point x="240" y="12" type="line"/>
      <point x="240" y="406" type="line"/>
      <point x="365" y="406" type="line"/>
    </contour>
  </outline>
</glyph>
<glyph name="v" format="1">
  <advance width="473"/>
  <unicode hex="0076"/>
  <outline>
    <contour>
      <point x="450" y="473" type="line"/>
      <point x="360" y="507" type="line"/>
      <point x="226" y="156" type="line"/>
      <point x="93" y="507" type="line"/>
      <point x="3" y="471" type="line"/>
      <point x="189" y="-3" type="line"/>
      <point x="271" y="15" type="line"/>
    </contour>
  </outline>
</glyph>
<glyph name="braceleft" format="1">
  <advance width="400"/>
  <unicode hex="007B"/>
  <outline>
    <contour>
      <point x="64" y="310" type="line"/>
      <point x="102" y="294"/>
      <point x="125" y="269"/>
      <point x="125" y="236" type="curve" smooth="yes"/>
      <point x="125" y="44" type="line" smooth="yes"/>
      <point x="125" y="-77"/>
      <point x="257" y="-113"/>
      <point x="327" y="-115" type="curve"/>
      <point x="329" y="-21" type="line"/>
      <point x="256" y="-15"/>
      <point x="220" y="10"/>
      <point x="220" y="44" type="curve" smooth="yes"/>
      <point x="220" y="228" type="line" smooth="yes"/>
      <point x="220" y="284"/>
      <point x="191" y="315"/>
      <point x="167" y="341" type="curve"/>
      <point x="204" y="380"/>
      <point x="220" y="408"/>
      <point x="220" y="454" type="curve" smooth="yes"/>
      <point x="220" y="625" type="line" smooth="yes"/>
      <point x="220" y="663"/>
      <point x="267" y="686"/>
      <point x="326" y="688" type="curve"/>
      <point x="328" y="782" type="line"/>
      <point x="258" y="781"/>
      <point x="125" y="746"/>
      <point x="125" y="625" type="curve" smooth="yes"/>
      <point x="125" y="453" type="line" smooth="yes"/>
      <point x="125" y="420"/>
      <point x="102" y="395"/>
      <point x="64" y="379" type="curve"/>
    </contour>
  </outline>
</glyph>
<glyph name="bar" format="1">
  <advance width="281"/>
  <unicode hex="007C"/>
  <outline>
    <contour>
      <point x="182" y="-52" type="line"/>
      <point x="182" y="737" type="line"/>
      <point x="88" y="719" type="line"/>
      <point x="88" y="-69" type="line"/>
    </contour>
  </outline>
</glyph>
<glyph name="braceright" format="1">
  <advance width="400"/>
  <unicode hex="007D"/>
  <outline>
    <contour>
      <point x="312" y="357" type="line"/>
      <point x="274" y="373"/>
      <point x="251" y="398"/>
      <point x="251" y="431" type="curve" smooth="yes"/>
      <point x="251" y="623" type="line" smooth="yes"/>
      <point x="251" y="744"/>
      <point x="119" y="780"/>
      <point x="49" y="782" type="curve"/>
      <point x="47" y="688" type="line"/>
      <point x="120" y="682"/>
      <point x="156" y="657"/>
      <point x="156" y="623" type="curve" smooth="yes"/>
      <point x="156" y="439" type="line" smooth="yes"/>
      <point x="156" y="383"/>
      <point x="185" y="352"/>
      <point x="209" y="326" type="curve"/>
      <point x="172" y="287"/>
      <point x="156" y="259"/>
      <point x="156" y="213" type="curve" smooth="yes"/>
      <point x="156" y="42" type="line" smooth="yes"/>
      <point x="156" y="4"/>
      <point x="109" y="-19"/>
      <point x="50" y="-21" type="curve"/>
      <point x="48" y="-115" type="line"/>
      <point x="118" y="-114"/>
      <point x="251" y="-79"/>
      <point x="251" y="42" type="curve" smooth="yes"/>
      <point x="251" y="214" type="line" smooth="yes"/>
      <point x="251" y="247"/>
      <point x="274" y="272"/>
      <point x="312" y="288" type="curve"/>
    </contour>
  </outline>
</glyph>
<glyph name="exclamdown" format="1">
  <advance width="211"/>
  <unicode hex="00A1"/>
  <outline>
    <contour>
      <point x="45" y="321" type="line"/>
      <point x="45" y="-179" type="line"/>
      <point x="140" y="-163" type="line"/>
      <point x="140" y="340" type="line"/>
    </contour>
    <contour>
      <point x="40" y="366" type="line"/>
      <point x="139" y="383" type="line"/>
      <point x="148" y="505" type="line"/>
      <point x="50" y="488" type="line"/>
    </contour>
  </outline>
</glyph>
<glyph name="dieresis" format="1">
  <advance width="526"/>
  <unicode hex="00A8"/>
  <outline>
    <contour>
      <point x="232" y="652" type="line"/>
      <point x="119" y="638" type="line"/>
      <point x="105" y="516" type="line"/>
      <point x="220" y="531" type="line"/>
    </contour>
    <contour>
      <point x="397" y="652" type="line"/>
      <point x="284" y="638" type="line"/>
      <point x="271" y="516" type="line"/>
      <point x="385" y="531" type="line"/>
    </contour>
  </outline>
</glyph>
<glyph name="uni00AD" format="1">
  <advance width="468"/>
  <unicode hex="00AD"/>
  <outline>
    <contour>
      <point x="390" y="301" type="line"/>
      <point x="77" y="301" type="line"/>
      <point x="60" y="206" type="line"/>
      <point x="372" y="206" type="line"/>
    </contour>
  </outline>
</glyph>
<glyph name="degree" format="1">
  <advance width="293"/>
  <unicode hex="00B0"/>
  <outline>
    <contour>
      <point x="219" y="455"/>
      <point x="284" y="519"/>
      <point x="284" y="598" type="curve" smooth="yes"/>
      <point x="284" y="678"/>
      <point x="219" y="742"/>
      <point x="140" y="742" type="curve" smooth="yes"/>
      <point x="61" y="742"/>
      <point x="-4" y="678"/>
      <point x="-4" y="598" type="curve" smooth="yes"/>
      <point x="-4" y="519"/>
      <point x="61" y="455"/>
      <point x="140" y="455" type="curve" smooth="yes"/>
    </contour>
    <contour>
      <point x="170" y="655"/>
      <point x="196" y="629"/>
      <point x="196" y="598" type="curve" smooth="yes"/>
      <point x="196" y="568"/>
      <point x="170" y="541"/>
      <point x="140" y="541" type="curve" smooth="yes"/>
      <point x="110" y="541"/>
      <point x="84" y="568"/>
      <point x="84" y="598" type="curve" smooth="yes"/>
      <point x="84" y="629"/>
      <point x="110" y="655"/>
      <point x="140" y="655" type="curve" smooth="yes"/>
    </contour>
  </outline>
</glyph>
<glyph name="threesuperior" format="1">
  <advance width="262"/>
  <unicode hex="00B3"/>
  <outline>
    <contour>
      <point x="56" y="661" type="line"/>
      <point x="85" y="691"/>
      <point x="108" y="703"/>
      <point x="136" y="703" type="curve" smooth="yes"/>
      <point x="152" y="703"/>
      <point x="161" y="698"/>
      <point x="161" y="688" type="curve" smooth="yes"/>
      <point x="161" y="663"/>
      <point x="101" y="636"/>
      <point x="68" y="636" type="curve"/>
      <point x="75" y="574" type="line"/>
      <point x="142" y="577"/>
      <point x="169" y="553"/>
      <point x="169" y="528" type="curve" smooth="yes"/>
      <point x="169" y="504"/>
      <point x="150" y="485"/>
      <point x="126" y="485" type="curve" smooth="yes"/>
      <point x="101" y="485"/>
      <point x="82" y="507"/>
      <point x="76" y="547" type="curve"/>
      <point x="-9" y="511" type="line"/>
      <point x="16" y="422"/>
      <point x="81" y="398"/>
      <point x="126" y="398" type="curve" smooth="yes"/>
      <point x="177" y="398"/>
      <point x="256" y="434"/>
      <point x="256" y="528" type="curve" smooth="yes"/>
      <point x="256" y="565"/>
      <point x="227" y="603"/>
      <point x="199" y="617" type="curve"/>
      <point x="228" y="630"/>
      <point x="248" y="661"/>
      <point x="248" y="688" type="curve" smooth="yes"/>
      <point x="248" y="745"/>
      <point x="194" y="789"/>
      <point x="124" y="789" type="curve" smooth="yes"/>
      <point x="70" y="789"/>
      <point x="24" y="752"/>
      <point x="-3" y="724" type="curve"/>
    </contour>
  </outline>
</glyph>
<glyph name="acute" format="1">
  <advance width="526"/>
  <unicode hex="00B4"/>
  <outline>
    <contour>
      <point x="124" y="570" type="line"/>
      <point x="195" y="510" type="line"/>
      <point x="381" y="638" type="line"/>
      <point x="297" y="711" type="line"/>
    </contour>
  </outline>
</glyph>
<glyph name="periodcentered" format="1">
  <advance width="526"/>
  <unicode hex="00B7"/>
  <outline>
    <contour>
      <point x="314" y="321" type="line"/>
      <point x="202" y="306" type="line"/>
      <point x="188" y="185" type="line"/>
      <point x="303" y="200" type="line"/>
    </contour>
  </outline>
</glyph>
<glyph name="cedilla" format="1">
  <advance width="526"/>
  <unicode hex="00B8"/>
  <outline>
    <contour>
      <point x="184" y="-54" type="line"/>
      <point x="226" y="-98" type="line"/>
      <point x="231" y="-93"/>
      <point x="242" y="-90"/>
      <point x="249" y="-90" type="curve" smooth="yes"/>
      <point x="269" y="-90"/>
      <point x="281" y="-99"/>
      <point x="281" y="-115" type="curve" smooth="yes"/>
      <point x="281" y="-130"/>
      <point x="269" y="-139"/>
      <point x="253" y="-139" type="curve" smooth="yes"/>
      <point x="239" y="-139"/>
      <point x="227" y="-132"/>
      <point x="221" y="-123" type="curve"/>
      <point x="177" y="-157" type="line"/>
      <point x="200" y="-186"/>
      <point x="222" y="-196"/>
      <point x="253" y="-196" type="curve" smooth="yes"/>
      <point x="305" y="-196"/>
      <point x="348" y="-167"/>
      <point x="348" y="-115" type="curve" smooth="yes"/>
      <point x="348" y="-60"/>
      <point x="310" y="-38"/>
      <point x="257" y="-33" type="curve"/>
      <point x="259" y="21" type="line"/>
      <point x="209" y="17" type="line"/>
    </contour>
  </outline>
</glyph>
<glyph name="onesuperior" format="1">
  <advance width="205"/>
  <unicode hex="00B9"/>
  <outline>
    <contour>
      <point x="-3" y="413" type="line"/>
      <point x="192" y="413" type="line"/>
      <point x="206" y="500" type="line"/>
      <point x="152" y="500" type="line"/>
      <point x="158" y="854" type="line"/>
      <point x="-15" y="697" type="line"/>
      <point x="43" y="632" type="line"/>
      <point x="69" y="655" type="line"/>
      <point x="65" y="500" type="line"/>
      <point x="14" y="500" type="line"/>
    </contour>
  </outline>
</glyph>
<glyph name="guillemotright" format="1">
  <advance width="635"/>
  <unicode hex="00BB"/>
  <outline>
    <contour>
      <point x="348" y="50" type="line"/>
      <point x="572" y="253" type="line"/>
      <point x="332" y="457" type="line"/>
      <point x="271" y="386" type="line"/>
      <point x="428" y="252" type="line"/>
      <point x="284" y="121" type="line"/>
    </contour>
    <contour>
      <point x="123" y="51" type="line"/>
      <point x="345" y="253" type="line"/>
      <point x="105" y="457" type="line"/>
      <point x="44" y="386" type="line"/>
      <point x="202" y="252" type="line"/>
      <point x="58" y="121" type="line"/>
    </contour>
  </outline>
</glyph>
<glyph name="questiondown" format="1">
  <advance width="527"/>
  <unicode hex="00BF"/>
  <outline>
    <contour>
      <point x="236" y="569" type="line"/>
      <point x="334" y="586" type="line"/>
      <point x="343" y="698" type="line"/>
      <point x="246" y="681" type="line"/>
    </contour>
    <contour>
      <point x="323" y="-1"/>
      <point x="406" y="90"/>
      <point x="431" y="127" type="curve"/>
      <point x="360" y="198" type="line"/>
      <point x="353" y="186"/>
      <point x="297" y="94"/>
      <point x="211" y="94" type="curve" smooth="yes"/>
      <point x="128" y="94"/>
      <point x="94" y="149"/>
      <point x="94" y="204" type="curve" smooth="yes"/>
      <point x="94" y="261"/>
      <point x="140" y="297"/>
      <point x="179" y="331" type="curve" smooth="yes"/>
      <point x="322" y="458" type="line"/>
      <point x="274" y="544" type="line"/>
      <point x="117" y="403" type="line" smooth="yes"/>
      <point x="69" y="360"/>
      <point x="0" y="303"/>
      <point x="0" y="204" type="curve" smooth="yes"/>
      <point x="0" y="79"/>
      <point x="80" y="-1"/>
      <point x="214" y="-1" type="curve" smooth="yes"/>
    </contour>
  </outline>
</glyph>
<glyph name="AE" format="1">
  <advance width="1075"/>
  <unicode hex="00C6"/>
  <outline>
    <contour>
      <point x="167" y="215" type="line"/>
      <point x="44" y="39" type="line"/>
      <point x="129" y="-6" type="line"/>
      <point x="307" y="246" type="line"/>
      <point x="476" y="281" type="line"/>
      <point x="476" y="0" type="line"/>
      <point x="950" y="0" type="line"/>
      <point x="985" y="99" type="line"/>
      <point x="575" y="99" type="line"/>
      <point x="575" y="304" type="line"/>
      <point x="912" y="304" type="line"/>
      <point x="941" y="402" type="line"/>
      <point x="575" y="402" type="line"/>
      <point x="575" y="582" type="line"/>
      <point x="958" y="582" type="line"/>
      <point x="975" y="681" type="line"/>
      <point x="497" y="681" type="line"/>
      <point x="253" y="334" type="line"/>
      <point x="148" y="313" type="line"/>
    </contour>
    <contour>
      <point x="476" y="379" type="line"/>
      <point x="389" y="361" type="line"/>
      <point x="476" y="484" type="line"/>
    </contour>
  </outline>
</glyph>
<glyph name="Egrave" format="1">
  <advance width="637"/>
  <unicode hex="00C8"/>
  <outline>
    <contour>
      <point x="408" y="750" type="line"/>
      <point x="260" y="912" type="line"/>
      <point x="161" y="856" type="line"/>
      <point x="326" y="700" type="line"/>
    </contour>
    <contour>
      <point x="160" y="99" type="line"/>
      <point x="160" y="304" type="line"/>
      <point x="497" y="304" type="line"/>
      <point x="526" y="402" type="line"/>
      <point x="160" y="402" type="line"/>
      <point x="160" y="582" type="line"/>
      <point x="543" y="582" type="line"/>
      <point x="560" y="681" type="line"/>
      <point x="61" y="681" type="line"/>
      <point x="61" y="0" type="line"/>
      <point x="535" y="0" type="line"/>
      <point x="570" y="99" type="line"/>
    </contour>
  </outline>
</glyph>
<glyph name="Eacute" format="1">
  <advance width="637"/>
  <unicode hex="00C9"/>
  <outline>
    <contour>
      <point x="172" y="772" type="line"/>
      <point x="245" y="710" type="line"/>
      <point x="435" y="831" type="line"/>
      <point x="349" y="906" type="line"/>
    </contour>
    <contour>
      <point x="160" y="99" type="line"/>
      <point x="160" y="304" type="line"/>
      <point x="497" y="304" type="line"/>
      <point x="526" y="402" type="line"/>
      <point x="160" y="402" type="line"/>
      <point x="160" y="582" type="line"/>
      <point x="543" y="582" type="line"/>
      <point x="560" y="681" type="line"/>
      <point x="61" y="681" type="line"/>
      <point x="61" y="0" type="line"/>
      <point x="535" y="0" type="line"/>
      <point x="570" y="99" type="line"/>
    </contour>
  </outline>
</glyph>
<glyph name="Edieresis" format="1">
  <advance width="637"/>
  <unicode hex="00CB"/>
  <outline>
    <contour>
      <point x="292" y="833" type="line"/>
      <point x="177" y="818" type="line"/>
      <point x="163" y="704" type="line"/>
      <point x="280" y="719" type="line"/>
    </contour>
    <contour>
      <point x="462" y="833" type="line"/>
      <point x="347" y="818" type="line"/>
      <point x="333" y="704" type="line"/>
      <point x="450" y="719" type="line"/>
    </contour>
    <contour>
      <point x="160" y="99" type="line"/>
      <point x="160" y="304" type="line"/>
      <point x="497" y="304" type="line"/>
      <point x="526" y="402" type="line"/>
      <point x="160" y="402" type="line"/>
      <point x="160" y="582" type="line"/>
      <point x="543" y="582" type="line"/>
      <point x="560" y="681" type="line"/>
      <point x="61" y="681" type="line"/>
      <point x="61" y="0" type="line"/>
      <point x="535" y="0" type="line"/>
      <point x="570" y="99" type="line"/>
    </contour>
  </outline>
</glyph>
<glyph name="Idieresis" format="1">
  <advance width="463"/>
  <unicode hex="00CF"/>
  <outline>
    <contour>
      <point x="209" y="833" type="line"/>
      <point x="93" y="818" type="line"/>
      <point x="79" y="704" type="line"/>
      <point x="197" y="719" type="line"/>
    </contour>
    <contour>
      <point x="379" y="833" type="line"/>
      <point x="263" y="818" type="line"/>
      <point x="249" y="704" type="line"/>
      <point x="367" y="719" type="line"/>
    </contour>
    <contour>
      <point x="382" y="582" type="line"/>
      <point x="400" y="681" type="line"/>
      <point x="65" y="681" type="line"/>
      <point x="48" y="582" type="line"/>
      <point x="177" y="582" type="line"/>
      <point x="177" y="99" type="line"/>
      <point x="65" y="99" type="line"/>
      <point x="48" y="0" type="line"/>
      <point x="382" y="0" type="line"/>
      <point x="400" y="99" type="line"/>
      <point x="276" y="99" type="line"/>
      <point x="276" y="582" type="line"/>
    </contour>
  </outline>
</glyph>
<glyph name="Ocircumflex" format="1">
  <advance width="686"/>
  <unicode hex="00D4"/>
  <outline>
    <contour>
      <point x="253" y="695" type="line"/>
      <point x="362" y="778" type="line"/>
      <point x="455" y="696" type="line"/>
      <point x="520" y="761" type="line"/>
      <point x="368" y="895" type="line"/>
      <point x="194" y="766" type="line"/>
    </contour>
    <contour>
      <point x="470" y="0"/>
      <point x="607" y="168"/>
      <point x="607" y="367" type="curve" smooth="yes"/>
      <point x="607" y="540"/>
      <point x="498" y="684"/>
      <point x="351" y="684" type="curve" smooth="yes"/>
      <point x="194" y="684"/>
      <point x="57" y="516"/>
      <point x="57" y="317" type="curve" smooth="yes"/>
      <point x="57" y="146"/>
      <point x="163" y="0"/>
      <point x="312" y="0" type="curve" smooth="yes"/>
    </contour>
    <contour>
      <point x="442" y="589"/>
      <point x="511" y="477"/>
      <point x="511" y="363" type="curve" smooth="yes"/>
      <point x="511" y="218"/>
      <point x="415" y="95"/>
      <point x="312" y="95" type="curve" smooth="yes"/>
      <point x="220" y="95"/>
      <point x="153" y="196"/>
      <point x="153" y="317" type="curve" smooth="yes"/>
      <point x="153" y="468"/>
      <point x="242" y="589"/>
      <point x="345" y="589" type="curve" smooth="yes"/>
    </contour>
  </outline>
</glyph>
<glyph name="Otilde" format="1">
  <advance width="686"/>
  <unicode hex="00D5"/>
  <outline>
    <contour>
      <point x="470" y="0"/>
      <point x="607" y="168"/>
      <point x="607" y="367" type="curve" smooth="yes"/>
      <point x="607" y="540"/>
      <point x="498" y="684"/>
      <point x="351" y="684" type="curve" smooth="yes"/>
      <point x="194" y="684"/>
      <point x="57" y="516"/>
      <point x="57" y="317" type="curve" smooth="yes"/>
      <point x="57" y="146"/>
      <point x="163" y="0"/>
      <point x="312" y="0" type="curve" smooth="yes"/>
    </contour>
    <contour>
      <point x="442" y="589"/>
      <point x="511" y="477"/>
      <point x="511" y="363" type="curve" smooth="yes"/>
      <point x="511" y="218"/>
      <point x="415" y="95"/>
      <point x="312" y="95" type="curve" smooth="yes"/>
      <point x="220" y="95"/>
      <point x="153" y="196"/>
      <point x="153" y="317" type="curve" smooth="yes"/>
      <point x="153" y="468"/>
      <point x="242" y="589"/>
      <point x="345" y="589" type="curve" smooth="yes"/>
    </contour>
    <contour>
      <point x="481" y="870" type="line"/>
      <point x="467" y="816"/>
      <point x="441" y="793"/>
      <point x="420" y="793" type="curve" smooth="yes"/>
      <point x="405" y="793"/>
      <point x="394" y="807"/>
      <point x="378" y="829" type="curve" smooth="yes"/>
      <point x="356" y="860"/>
      <point x="330" y="877"/>
      <point x="291" y="877" type="curve" smooth="yes"/>
      <point x="213" y="877"/>
      <point x="173" y="809"/>
      <point x="157" y="753" type="curve"/>
      <point x="222" y="720" type="line"/>
      <point x="224" y="732"/>
      <point x="244" y="788"/>
      <point x="279" y="788" type="curve" smooth="yes"/>
      <point x="294" y="788"/>
      <point x="305" y="776"/>
      <point x="321" y="753" type="curve" smooth="yes"/>
      <point x="343" y="722"/>
      <point x="370" y="705"/>
      <point x="402" y="705" type="curve" smooth="yes"/>
      <point x="503" y="705"/>
      <point x="537" y="807"/>
      <point x="548" y="838" type="curve"/>
    </contour>
  </outline>
</glyph>
<glyph name="Oslash" format="1">
  <advance width="686"/>
  <unicode hex="00D8"/>
  <outline>
    <contour>
      <point x="564" y="697" type="line"/>
      <point x="481" y="746" type="line"/>
      <point x="437" y="666" type="line"/>
      <point x="411" y="677"/>
      <point x="381" y="683"/>
      <point x="351" y="683" type="curve" smooth="yes"/>
      <point x="193" y="683"/>
      <point x="57" y="514"/>
      <point x="57" y="314" type="curve" smooth="yes"/>
      <point x="57" y="230"/>
      <point x="77" y="158"/>
      <point x="123" y="100" type="curve"/>
      <point x="71" y="7" type="line"/>
      <point x="155" y="-39" type="line"/>
      <point x="195" y="33" type="line"/>
      <point x="229" y="12"/>
      <point x="273" y="-1"/>
      <point x="312" y="-1" type="curve" smooth="yes"/>
      <point x="470" y="-1"/>
      <point x="607" y="167"/>
      <point x="607" y="366" type="curve" smooth="yes"/>
      <point x="607" y="456"/>
      <point x="578" y="551"/>
      <point x="516" y="611" type="curve"/>
    </contour>
    <contour>
      <point x="177" y="197" type="line"/>
      <point x="161" y="232"/>
      <point x="153" y="274"/>
      <point x="153" y="317" type="curve" smooth="yes"/>
      <point x="153" y="467"/>
      <point x="243" y="588"/>
      <point x="345" y="588" type="curve" smooth="yes"/>
      <point x="360" y="588"/>
      <point x="375" y="585"/>
      <point x="389" y="579" type="curve"/>
    </contour>
    <contour>
      <point x="286" y="94"/>
      <point x="262" y="102"/>
      <point x="240" y="116" type="curve"/>
      <point x="465" y="517" type="line"/>
      <point x="493" y="474"/>
      <point x="511" y="416"/>
      <point x="511" y="362" type="curve" smooth="yes"/>
      <point x="511" y="245"/>
      <point x="435" y="94"/>
      <point x="312" y="94" type="curve" smooth="yes"/>
    </contour>
  </outline>
</glyph>
<glyph name="Uacute" format="1">
  <advance width="710"/>
  <unicode hex="00DA"/>
  <outline>
    <contour>
      <point x="234" y="772" type="line"/>
      <point x="308" y="710" type="line"/>
      <point x="498" y="831" type="line"/>
      <point x="411" y="906" type="line"/>
    </contour>
    <contour>
      <point x="603" y="0"/>
      <point x="624" y="240"/>
      <point x="624" y="467" type="curve" smooth="yes"/>
      <point x="624" y="536"/>
      <point x="622" y="662"/>
      <point x="621" y="685" type="curve"/>
      <point x="522" y="666" type="line"/>
      <point x="523" y="633"/>
      <point x="525" y="502"/>
      <point x="525" y="425" type="curve" smooth="yes"/>
      <point x="525" y="276"/>
      <point x="512" y="92"/>
      <point x="343" y="92" type="curve" smooth="yes"/>
      <point x="180" y="92"/>
      <point x="162" y="260"/>
      <point x="162" y="443" type="curve" smooth="yes"/>
      <point x="162" y="521"/>
      <point x="164" y="664"/>
      <point x="165" y="685" type="curve"/>
      <point x="66" y="668" type="line"/>
      <point x="65" y="640"/>
      <point x="63" y="516"/>
      <point x="63" y="451" type="curve" smooth="yes"/>
      <point x="63" y="194"/>
      <point x="103" y="0"/>
      <point x="343" y="0" type="curve" smooth="yes"/>
    </contour>
  </outline>
</glyph>
<glyph name="Udieresis" format="1">
  <advance width="710"/>
  <unicode hex="00DC"/>
  <outline>
    <contour>
      <point x="332" y="833" type="line"/>
      <point x="217" y="818" type="line"/>
      <point x="203" y="704" type="line"/>
      <point x="320" y="719" type="line"/>
    </contour>
    <contour>
      <point x="501" y="833" type="line"/>
      <point x="386" y="818" type="line"/>
      <point x="372" y="704" type="line"/>
      <point x="489" y="719" type="line"/>
    </contour>
    <contour>
      <point x="603" y="0"/>
      <point x="624" y="240"/>
      <point x="624" y="467" type="curve" smooth="yes"/>
      <point x="624" y="536"/>
      <point x="622" y="662"/>
      <point x="621" y="685" type="curve"/>
      <point x="522" y="666" type="line"/>
      <point x="523" y="633"/>
      <point x="525" y="502"/>
      <point x="525" y="425" type="curve" smooth="yes"/>
      <point x="525" y="276"/>
      <point x="512" y="92"/>
      <point x="343" y="92" type="curve" smooth="yes"/>
      <point x="180" y="92"/>
      <point x="162" y="260"/>
      <point x="162" y="443" type="curve" smooth="yes"/>
      <point x="162" y="521"/>
      <point x="164" y="664"/>
      <point x="165" y="685" type="curve"/>
      <point x="66" y="668" type="line"/>
      <point x="65" y="640"/>
      <point x="63" y="516"/>
      <point x="63" y="451" type="curve" smooth="yes"/>
      <point x="63" y="194"/>
      <point x="103" y="0"/>
      <point x="343" y="0" type="curve" smooth="yes"/>
    </contour>
  </outline>
</glyph>
<glyph name="Thorn" format="1">
  <advance width="532"/>
  <unicode hex="00DE"/>
  <outline>
    <contour>
      <point x="59" y="670" type="line"/>
      <point x="59" y="-6" type="line"/>
      <point x="155" y="16" type="line"/>
      <point x="155" y="135" type="line"/>
      <point x="298" y="146"/>
      <point x="489" y="196"/>
      <point x="489" y="375" type="curve" smooth="yes"/>
      <point x="489" y="557"/>
      <point x="295" y="581"/>
      <point x="157" y="583" type="curve"/>
      <point x="157" y="691" type="line"/>
    </contour>
    <contour>
      <point x="157" y="486" type="line"/>
      <point x="288" y="481"/>
      <point x="389" y="448"/>
      <point x="389" y="375" type="curve" smooth="yes"/>
      <point x="389" y="293"/>
      <point x="294" y="245"/>
      <point x="156" y="234" type="curve"/>
    </contour>
  </outline>
</glyph>
<glyph name="germandbls" format="1">
  <advance width="551"/>
  <unicode hex="00DF"/>
  <outline>
    <contour>
      <point x="429" y="553"/>
      <point x="347" y="627"/>
      <point x="254" y="627" type="curve" smooth="yes"/>
      <point x="159" y="627"/>
      <point x="78" y="551"/>
      <point x="78" y="457" type="curve" smooth="yes"/>
      <point x="78" y="-14" type="line"/>
      <point x="170" y="33" type="line"/>
      <point x="170" y="457" type="line" smooth="yes"/>
      <point x="170" y="499"/>
      <point x="211" y="535"/>
      <point x="254" y="535" type="curve" smooth="yes"/>
      <point x="296" y="535"/>
      <point x="336" y="499"/>
      <point x="336" y="457" type="curve" smooth="yes"/>
      <point x="336" y="423"/>
      <point x="313" y="386"/>
      <point x="233" y="375" type="curve"/>
      <point x="206" y="276" type="line"/>
      <point x="259" y="287"/>
      <point x="292" y="291"/>
      <point x="307" y="291" type="curve" smooth="yes"/>
      <point x="370" y="291"/>
      <point x="413" y="236"/>
      <point x="413" y="181" type="curve" smooth="yes"/>
      <point x="413" y="121"/>
      <point x="368" y="71"/>
      <point x="309" y="71" type="curve" smooth="yes"/>
      <point x="291" y="71"/>
      <point x="263" y="78"/>
      <point x="238" y="95" type="curve"/>
      <point x="194" y="13" type="line"/>
      <point x="238" y="-14"/>
      <point x="280" y="-22"/>
      <point x="314" y="-22" type="curve" smooth="yes"/>
      <point x="426" y="-22"/>
      <point x="506" y="73"/>
      <point x="506" y="182" type="curve" smooth="yes"/>
      <point x="506" y="271"/>
      <point x="457" y="332"/>
      <point x="388" y="360" type="curve"/>
      <point x="413" y="379"/>
      <point x="429" y="423"/>
      <point x="429" y="459" type="curve" smooth="yes"/>
    </contour>
  </outline>
</glyph>
<glyph name="adieresis" format="1">
  <advance width="530"/>
  <unicode hex="00E4"/>
  <outline>
    <contour>
      <point x="261" y="672" type="line"/>
      <point x="149" y="658" type="line"/>
      <point x="135" y="546" type="line"/>
      <point x="250" y="561" type="line"/>
    </contour>
    <contour>
      <point x="427" y="672" type="line"/>
      <point x="314" y="658" type="line"/>
      <point x="301" y="546" type="line"/>
      <point x="415" y="561" type="line"/>
    </contour>
    <contour>
      <point x="446" y="466" type="line"/>
      <point x="395" y="492"/>
      <point x="339" y="512"/>
      <point x="285" y="512" type="curve" smooth="yes"/>
      <point x="111" y="512"/>
      <point x="47" y="327"/>
      <point x="47" y="226" type="curve" smooth="yes"/>
      <point x="47" y="95"/>
      <point x="129" y="6"/>
      <point x="240" y="6" type="curve" smooth="yes"/>
      <point x="281" y="6"/>
      <point x="318" y="18"/>
      <point x="350" y="34" type="curve"/>
      <point x="350" y="-5" type="line"/>
      <point x="446" y="13" type="line"/>
    </contour>
    <contour>
      <point x="144" y="296"/>
      <point x="182" y="417"/>
      <point x="290" y="417" type="curve" smooth="yes"/>
      <point x="309" y="417"/>
      <point x="335" y="412"/>
      <point x="352" y="404" type="curve"/>
      <point x="348" y="143" type="line"/>
      <point x="324" y="126"/>
      <point x="279" y="102"/>
      <point x="239" y="102" type="curve" smooth="yes"/>
      <point x="170" y="103"/>
      <point x="144" y="172"/>
      <point x="144" y="227" type="curve" smooth="yes"/>
    </contour>
  </outline>
</glyph>
<glyph name="ccedilla" format="1">
  <advance width="533"/>
  <unicode hex="00E7"/>
  <outline>
    <contour>
      <point x="194" y="-54" type="line"/>
      <point x="236" y="-98" type="line"/>
      <point x="241" y="-93"/>
      <point x="252" y="-90"/>
      <point x="259" y="-90" type="curve" smooth="yes"/>
      <point x="279" y="-90"/>
      <point x="291" y="-99"/>
      <point x="291" y="-115" type="curve" smooth="yes"/>
      <point x="291" y="-130"/>
      <point x="279" y="-139"/>
      <point x="263" y="-139" type="curve" smooth="yes"/>
      <point x="249" y="-139"/>
      <point x="237" y="-132"/>
      <point x="231" y="-123" type="curve"/>
      <point x="187" y="-157" type="line"/>
      <point x="210" y="-186"/>
      <point x="232" y="-196"/>
      <point x="263" y="-196" type="curve" smooth="yes"/>
      <point x="315" y="-196"/>
      <point x="358" y="-167"/>
      <point x="358" y="-115" type="curve" smooth="yes"/>
      <point x="358" y="-60"/>
      <point x="320" y="-38"/>
      <point x="267" y="-33" type="curve"/>
      <point x="268" y="0" type="line"/>
      <point x="279" y="0" type="line"/>
      <point x="357" y="3"/>
      <point x="427" y="47"/>
      <point x="470" y="114" type="curve"/>
      <point x="398" y="186" type="line"/>
      <point x="369" y="131"/>
      <point x="324" y="95"/>
      <point x="276" y="93" type="curve" smooth="yes"/>
      <point x="238" y="91"/>
      <point x="142" y="113"/>
      <point x="142" y="221" type="curve" smooth="yes"/>
      <point x="142" y="295"/>
      <point x="198" y="409"/>
      <point x="276" y="409" type="curve" smooth="yes"/>
      <point x="310" y="409"/>
      <point x="346" y="386"/>
      <point x="372" y="342" type="curve"/>
      <point x="442" y="411" type="line"/>
      <point x="398" y="470"/>
      <point x="339" y="502"/>
      <point x="274" y="502" type="curve" smooth="yes"/>
      <point x="137" y="502"/>
      <point x="48" y="331"/>
      <point x="48" y="219" type="curve" smooth="yes"/>
      <point x="48" y="115"/>
      <point x="122" y="30"/>
      <point x="215" y="6" type="curve"/>
    </contour>
  </outline>
</glyph>
<glyph name="edieresis" format="1">
  <advance width="553"/>
  <unicode hex="00EB"/>
  <outline>
    <contour>
      <point x="259" y="672" type="line"/>
      <point x="146" y="658" type="line"/>
      <point x="132" y="546" type="line"/>
      <point x="247" y="561" type="line"/>
    </contour>
    <contour>
      <point x="424" y="672" type="line"/>
      <point x="312" y="658" type="line"/>
      <point x="298" y="546" type="line"/>
      <point x="412" y="561" type="line"/>
    </contour>
    <contour>
      <point x="355" y="0"/>
      <point x="423" y="33"/>
      <point x="480" y="93" type="curve"/>
      <point x="413" y="156" type="line"/>
      <point x="374" y="115"/>
      <point x="332" y="92"/>
      <point x="291" y="92" type="curve" smooth="yes"/>
      <point x="242" y="92"/>
      <point x="195" y="122"/>
      <point x="168" y="158" type="curve"/>
      <point x="486" y="335" type="line"/>
      <point x="460" y="426"/>
      <point x="382" y="502"/>
      <point x="291" y="502" type="curve" smooth="yes"/>
      <point x="155" y="502"/>
      <point x="48" y="388"/>
      <point x="48" y="251" type="curve" smooth="yes"/>
      <point x="48" y="113"/>
      <point x="156" y="0"/>
      <point x="291" y="0" type="curve" smooth="yes"/>
    </contour>
    <contour>
      <point x="140" y="247" type="line"/>
      <point x="140" y="334"/>
      <point x="201" y="410"/>
      <point x="291" y="410" type="curve" smooth="yes"/>
      <point x="317" y="410"/>
      <point x="346" y="396"/>
      <point x="365" y="375" type="curve"/>
    </contour>
  </outline>
</glyph>
<glyph name="igrave" format="1">
  <advance width="271"/>
  <unicode hex="00EC"/>
  <outline>
    <contour>
      <point x="234" y="579" type="line"/>
      <point x="89" y="737" type="line"/>
      <point x="-8" y="682" type="line"/>
      <point x="153" y="530" type="line"/>
    </contour>
    <contour>
      <point x="76" y="489" type="line"/>
      <point x="76" y="-5" type="line"/>
      <point x="176" y="12" type="line"/>
      <point x="176" y="505" type="line"/>
    </contour>
  </outline>
</glyph>
<glyph name="iacute" format="1">
  <advance width="259"/>
  <unicode hex="00ED"/>
  <outline>
    <contour>
      <point x="17" y="600" type="line"/>
      <point x="88" y="540" type="line"/>
      <point x="274" y="658" type="line"/>
      <point x="190" y="731" type="line"/>
    </contour>
    <contour>
      <point x="67" y="489" type="line"/>
      <point x="67" y="-5" type="line"/>
      <point x="166" y="12" type="line"/>
      <point x="166" y="505" type="line"/>
    </contour>
  </outline>
</glyph>
<glyph name="icircumflex" format="1">
  <advance width="300"/>
  <unicode hex="00EE"/>
  <outline>
    <contour>
      <point x="52" y="520" type="line"/>
      <point x="157" y="602" type="line"/>
      <point x="247" y="521" type="line"/>
      <point x="311" y="580" type="line"/>
      <point x="163" y="720" type="line"/>
      <point x="-6" y="585" type="line"/>
    </contour>
    <contour>
      <point x="97" y="489" type="line"/>
      <point x="97" y="-5" type="line"/>
      <point x="197" y="12" type="line"/>
      <point x="197" y="505" type="line"/>
    </contour>
  </outline>
</glyph>
<glyph name="eth" format="1">
  <advance width="508"/>
  <unicode hex="00F0"/>
  <outline>
    <contour>
      <point x="402" y="590" type="line"/>
      <point x="376" y="666" type="line"/>
      <point x="329" y="647"/>
      <point x="286" y="626"/>
      <point x="253" y="608" type="curve"/>
      <point x="236" y="626"/>
      <point x="208" y="649"/>
      <point x="192" y="661" type="curve"/>
      <point x="130" y="592" type="line"/>
      <point x="139" y="586"/>
      <point x="155" y="574"/>
      <point x="169" y="561" type="curve"/>
      <point x="140" y="544"/>
      <point x="108" y="523"/>
      <point x="79" y="504" type="curve"/>
      <point x="118" y="427" type="line"/>
      <point x="132" y="439"/>
      <point x="186" y="476"/>
      <point x="229" y="501" type="curve"/>
      <point x="244" y="485"/>
      <point x="264" y="458"/>
      <point x="279" y="437" type="curve"/>
      <point x="140" y="417"/>
      <point x="47" y="322"/>
      <point x="47" y="184" type="curve" smooth="yes"/>
      <point x="47" y="75"/>
      <point x="122" y="0"/>
      <point x="219" y="0" type="curve" smooth="yes"/>
      <point x="357" y="0"/>
      <point x="440" y="128"/>
      <point x="440" y="255" type="curve" smooth="yes"/>
      <point x="440" y="366"/>
      <point x="379" y="467"/>
      <point x="309" y="547" type="curve"/>
    </contour>
    <contour>
      <point x="173" y="92"/>
      <point x="139" y="126"/>
      <point x="139" y="183" type="curve" smooth="yes"/>
      <point x="139" y="295"/>
      <point x="219" y="346"/>
      <point x="327" y="350" type="curve"/>
      <point x="340" y="319"/>
      <point x="348" y="288"/>
      <point x="348" y="257" type="curve" smooth="yes"/>
      <point x="348" y="177"/>
      <point x="300" y="92"/>
      <point x="219" y="92" type="curve" smooth="yes"/>
    </contour>
  </outline>
</glyph>
<glyph name="oslash" format="1">
  <advance width="561"/>
  <unicode hex="00F8"/>
  <outline>
    <contour>
      <point x="463" y="503" type="line"/>
      <point x="383" y="549" type="line"/>
      <point x="348" y="488" type="line"/>
      <point x="326" y="497"/>
      <point x="304" y="500"/>
      <point x="282" y="500" type="curve" smooth="yes"/>
      <point x="154" y="500"/>
      <point x="48" y="376"/>
      <point x="48" y="231" type="curve" smooth="yes"/>
      <point x="48" y="168"/>
      <point x="67" y="112"/>
      <point x="104" y="70" type="curve"/>
      <point x="65" y="6" type="line"/>
      <point x="146" y="-40" type="line"/>
      <point x="178" y="15" type="line"/>
      <point x="202" y="5"/>
      <point x="228" y="0"/>
      <point x="254" y="0" type="curve" smooth="yes"/>
      <point x="382" y="0"/>
      <point x="489" y="122"/>
      <point x="489" y="268" type="curve" smooth="yes"/>
      <point x="489" y="329"/>
      <point x="467" y="394"/>
      <point x="425" y="437" type="curve"/>
    </contour>
    <contour>
      <point x="157" y="163" type="line"/>
      <point x="150" y="184"/>
      <point x="145" y="208"/>
      <point x="145" y="232" type="curve" smooth="yes"/>
      <point x="145" y="327"/>
      <point x="205" y="411"/>
      <point x="278" y="411" type="curve" smooth="yes"/>
      <point x="284" y="411"/>
      <point x="293" y="410"/>
      <point x="301" y="408" type="curve"/>
    </contour>
    <contour>
      <point x="243" y="89"/>
      <point x="234" y="90"/>
      <point x="224" y="94" type="curve"/>
      <point x="372" y="346" type="line"/>
      <point x="383" y="321"/>
      <point x="391" y="291"/>
      <point x="391" y="262" type="curve" smooth="yes"/>
      <point x="391" y="179"/>
      <point x="332" y="89"/>
      <point x="254" y="89" type="curve" smooth="yes"/>
    </contour>
  </outline>
</glyph>
<glyph name="uacute" format="1">
  <advance width="542"/>
  <unicode hex="00FA"/>
  <outline>
    <contour>
      <point x="157" y="600" type="line"/>
      <point x="227" y="540" type="line"/>
      <point x="413" y="658" type="line"/>
      <point x="329" y="731" type="line"/>
    </contour>
    <contour>
      <point x="157" y="359"/>
      <point x="175" y="488"/>
      <point x="178" y="509" type="curve"/>
      <point x="79" y="492" type="line"/>
      <point x="67" y="418"/>
      <point x="62" y="328"/>
      <point x="62" y="286" type="curve" smooth="yes"/>
      <point x="62" y="146"/>
      <point x="61" y="-5"/>
      <point x="223" y="-5" type="curve" smooth="yes"/>
      <point x="273" y="-5"/>
      <point x="322" y="14"/>
      <point x="356" y="36" type="curve"/>
      <point x="356" y="-4" type="line"/>
      <point x="458" y="12" type="line"/>
      <point x="458" y="508" type="line"/>
      <point x="359" y="491" type="line"/>
      <point x="359" y="167" type="line" smooth="yes"/>
      <point x="359" y="155"/>
      <point x="357" y="147"/>
      <point x="353" y="143" type="curve" smooth="yes"/>
      <point x="335" y="125"/>
      <point x="281" y="85"/>
      <point x="226" y="85" type="curve" smooth="yes"/>
      <point x="157" y="85"/>
      <point x="157" y="186"/>
      <point x="157" y="286" type="curve" smooth="yes"/>
    </contour>
  </outline>
</glyph>
<glyph name="ydieresis" format="1">
  <advance width="526"/>
  <unicode hex="00FF"/>
  <outline>
    <contour>
      <point x="237" y="672" type="line"/>
      <point x="124" y="658" type="line"/>
      <point x="111" y="546" type="line"/>
      <point x="225" y="561" type="line"/>
    </contour>
    <contour>
      <point x="403" y="672" type="line"/>
      <point x="290" y="658" type="line"/>
      <point x="276" y="546" type="line"/>
      <point x="391" y="561" type="line"/>
    </contour>
    <contour>
      <point x="404" y="508" type="line"/>
      <point x="256" y="191" type="line"/>
      <point x="98" y="507" type="line"/>
      <point x="12" y="464" type="line"/>
      <point x="205" y="78" type="line"/>
      <point x="101" y="-146" type="line"/>
      <point x="188" y="-187" type="line"/>
      <point x="492" y="467" type="line"/>
    </contour>
  </outline>
</glyph>
<glyph name="abreve" format="1">
  <advance width="530"/>
  <unicode hex="0103"/>
  <outline>
    <contour>
      <point x="251" y="626"/>
      <point x="216" y="629"/>
      <point x="178" y="698" type="curve"/>
      <point x="118" y="637" type="line"/>
      <point x="147" y="572"/>
      <point x="210" y="538"/>
      <point x="283" y="538" type="curve" smooth="yes"/>
      <point x="350" y="538"/>
      <point x="416" y="575"/>
      <point x="439" y="642" type="curve"/>
      <point x="375" y="706" type="line"/>
      <point x="354" y="649"/>
      <point x="324" y="626"/>
      <point x="278" y="626" type="curve" smooth="yes"/>
    </contour>
    <contour>
      <point x="446" y="466" type="line"/>
      <point x="395" y="492"/>
      <point x="339" y="512"/>
      <point x="285" y="512" type="curve" smooth="yes"/>
      <point x="111" y="512"/>
      <point x="47" y="327"/>
      <point x="47" y="226" type="curve" smooth="yes"/>
      <point x="47" y="95"/>
      <point x="129" y="6"/>
      <point x="240" y="6" type="curve" smooth="yes"/>
      <point x="281" y="6"/>
      <point x="318" y="18"/>
      <point x="350" y="34" type="curve"/>
      <point x="350" y="-5" type="line"/>
      <point x="446" y="13" type="line"/>
    </contour>
    <contour>
      <point x="144" y="296"/>
      <point x="182" y="417"/>
      <point x="290" y="417" type="curve" smooth="yes"/>
      <point x="309" y="417"/>
      <point x="335" y="412"/>
      <point x="352" y="404" type="curve"/>
      <point x="348" y="143" type="line"/>
      <point x="324" y="126"/>
      <point x="279" y="102"/>
      <point x="239" y="102" type="curve" smooth="yes"/>
      <point x="170" y="103"/>
      <point x="144" y="172"/>
      <point x="144" y="227" type="curve" smooth="yes"/>
    </contour>
  </outline>
</glyph>
<glyph name="Ccaron" format="1">
  <advance width="657"/>
  <unicode hex="010C"/>
  <outline>
    <contour>
      <point x="454" y="897" type="line"/>
      <point x="343" y="812" type="line"/>
      <point x="252" y="897" type="line"/>
      <point x="187" y="830" type="line"/>
      <point x="339" y="701" type="line"/>
      <point x="513" y="824" type="line"/>
    </contour>
    <contour>
      <point x="440" y="-1"/>
      <point x="538" y="56"/>
      <point x="595" y="149" type="curve"/>
      <point x="523" y="221" type="line"/>
      <point x="482" y="140"/>
      <point x="414" y="95"/>
      <point x="335" y="95" type="curve" smooth="yes"/>
      <point x="229" y="95"/>
      <point x="143" y="186"/>
      <point x="143" y="296" type="curve" smooth="yes"/>
      <point x="143" y="411"/>
      <point x="232" y="585"/>
      <point x="341" y="585" type="curve" smooth="yes"/>
      <point x="400" y="585"/>
      <point x="438" y="561"/>
      <point x="460" y="539" type="curve"/>
      <point x="460" y="502" type="line"/>
      <point x="549" y="502" type="line"/>
      <point x="549" y="665" type="line"/>
      <point x="460" y="665" type="line"/>
      <point x="460" y="651" type="line"/>
      <point x="426" y="667"/>
      <point x="386" y="681"/>
      <point x="346" y="681" type="curve" smooth="yes"/>
      <point x="167" y="681"/>
      <point x="48" y="454"/>
      <point x="48" y="294" type="curve" smooth="yes"/>
      <point x="48" y="127"/>
      <point x="179" y="-1"/>
      <point x="335" y="-1" type="curve" smooth="yes"/>
    </contour>
  </outline>
</glyph>
<glyph name="dcroat" format="1">
  <advance width="576"/>
  <unicode hex="0111"/>
  <outline>
    <contour>
      <point x="369" y="667" type="line"/>
      <point x="367" y="606" type="line"/>
      <point x="292" y="606" type="line"/>
      <point x="275" y="523" type="line"/>
      <point x="366" y="523" type="line"/>
      <point x="365" y="469" type="line"/>
      <point x="334" y="478"/>
      <point x="300" y="486"/>
      <point x="270" y="486" type="curve" smooth="yes"/>
      <point x="76" y="486"/>
      <point x="48" y="311"/>
      <point x="48" y="223" type="curve" smooth="yes"/>
      <point x="48" y="113"/>
      <point x="104" y="5"/>
      <point x="226" y="5" type="curve" smooth="yes"/>
      <point x="283" y="5"/>
      <point x="322" y="23"/>
      <point x="356" y="47" type="curve"/>
      <point x="356" y="-5" type="line"/>
      <point x="447" y="12" type="line"/>
      <point x="458" y="523" type="line"/>
      <point x="545" y="523" type="line"/>
      <point x="563" y="606" type="line"/>
      <point x="460" y="606" type="line"/>
      <point x="462" y="684" type="line"/>
    </contour>
    <contour>
      <point x="359" y="171" type="line" smooth="yes"/>
      <point x="358" y="149"/>
      <point x="305" y="95"/>
      <point x="226" y="95" type="curve" smooth="yes"/>
      <point x="158" y="95"/>
      <point x="144" y="174"/>
      <point x="144" y="226" type="curve" smooth="yes"/>
      <point x="144" y="294"/>
      <point x="162" y="392"/>
      <point x="265" y="392" type="curve" smooth="yes"/>
      <point x="307" y="392"/>
      <point x="344" y="376"/>
      <point x="364" y="366" type="curve"/>
    </contour>
  </outline>
</glyph>
<glyph name="Eogonek" format="1">
  <advance width="637"/>
  <unicode hex="0118"/>
  <outline>
    <contour>
      <point x="535" y="0" type="line"/>
      <point x="570" y="99" type="line"/>
      <point x="160" y="99" type="line"/>
      <point x="160" y="304" type="line"/>
      <point x="497" y="304" type="line"/>
      <point x="526" y="402" type="line"/>
      <point x="160" y="402" type="line"/>
      <point x="160" y="582" type="line"/>
      <point x="543" y="582" type="line"/>
      <point x="560" y="681" type="line"/>
      <point x="61" y="681" type="line"/>
      <point x="61" y="0" type="line"/>
      <point x="399" y="0" type="line"/>
      <point x="370" y="-22"/>
      <point x="340" y="-50"/>
      <point x="340" y="-94" type="curve" smooth="yes"/>
      <point x="340" y="-161"/>
      <point x="391" y="-196"/>
      <point x="459" y="-196" type="curve" smooth="yes"/>
      <point x="504" y="-196"/>
      <point x="557" y="-164"/>
      <point x="583" y="-131" type="curve"/>
      <point x="530" y="-75" type="line"/>
      <point x="502" y="-98"/>
      <point x="480" y="-112"/>
      <point x="459" y="-112" type="curve" smooth="yes"/>
      <point x="444" y="-112"/>
      <point x="431" y="-100"/>
      <point x="431" y="-86" type="curve" smooth="yes"/>
      <point x="431" y="-60"/>
      <point x="454" y="-44"/>
      <point x="472" y="-34" type="curve" smooth="yes"/>
    </contour>
  </outline>
</glyph>
<glyph name="eogonek" format="1">
  <advance width="553"/>
  <unicode hex="0119"/>
  <outline>
    <contour>
      <point x="418" y="34"/>
      <point x="449" y="61"/>
      <point x="480" y="93" type="curve"/>
      <point x="413" y="156" type="line"/>
      <point x="374" y="115"/>
      <point x="332" y="92"/>
      <point x="291" y="92" type="curve" smooth="yes"/>
      <point x="242" y="92"/>
      <point x="195" y="122"/>
      <point x="168" y="158" type="curve"/>
      <point x="486" y="335" type="line"/>
      <point x="460" y="426"/>
      <point x="382" y="502"/>
      <point x="291" y="502" type="curve" smooth="yes"/>
      <point x="155" y="502"/>
      <point x="48" y="388"/>
      <point x="48" y="251" type="curve" smooth="yes"/>
      <point x="48" y="133"/>
      <point x="126" y="34"/>
      <point x="232" y="7" type="curve"/>
      <point x="198" y="-15"/>
      <point x="170" y="-45"/>
      <point x="170" y="-94" type="curve" smooth="yes"/>
      <point x="170" y="-161"/>
      <point x="221" y="-196"/>
      <point x="289" y="-196" type="curve" smooth="yes"/>
      <point x="334" y="-196"/>
      <point x="385" y="-164"/>
      <point x="411" y="-131" type="curve"/>
      <point x="360" y="-75" type="line"/>
      <point x="332" y="-98"/>
      <point x="310" y="-112"/>
      <point x="289" y="-112" type="curve" smooth="yes"/>
      <point x="274" y="-112"/>
      <point x="261" y="-100"/>
      <point x="261" y="-86" type="curve" smooth="yes"/>
      <point x="261" y="-60"/>
      <point x="284" y="-45"/>
      <point x="302" y="-33" type="curve"/>
    </contour>
    <contour>
      <point x="140" y="247" type="line"/>
      <point x="140" y="334"/>
      <point x="201" y="410"/>
      <point x="291" y="410" type="curve" smooth="yes"/>
      <point x="317" y="410"/>
      <point x="346" y="396"/>
      <point x="365" y="375" type="curve"/>
    </contour>
  </outline>
</glyph>
<glyph name="Lslash" format="1">
  <advance width="575"/>
  <unicode hex="0141"/>
  <outline>
    <contour>
      <point x="539" y="29" type="line"/>
      <point x="533" y="128" type="line"/>
      <point x="216" y="104" type="line"/>
      <point x="216" y="318" type="line"/>
      <point x="304" y="374" type="line"/>
      <point x="251" y="457" type="line"/>
      <point x="216" y="435" type="line"/>
      <point x="216" y="683" type="line"/>
      <point x="118" y="665" type="line"/>
      <point x="118" y="374" type="line"/>
      <point x="28" y="318" type="line"/>
      <point x="85" y="234" type="line"/>
      <point x="118" y="254" type="line"/>
      <point x="118" y="-2" type="line"/>
    </contour>
  </outline>
</glyph>
<glyph name="lslash" format="1">
  <advance width="292"/>
  <unicode hex="0142"/>
  <outline>
    <contour>
      <point x="274" y="365" type="line"/>
      <point x="222" y="447" type="line"/>
      <point x="188" y="425" type="line"/>
      <point x="188" y="679" type="line"/>
      <point x="92" y="661" type="line"/>
      <point x="92" y="365" type="line"/>
      <point x="4" y="310" type="line"/>
      <point x="60" y="228" type="line"/>
      <point x="92" y="248" type="line"/>
      <point x="92" y="-5" type="line"/>
      <point x="188" y="12" type="line"/>
      <point x="188" y="310" type="line"/>
    </contour>
  </outline>
</glyph>
<glyph name="nacute" format="1">
  <advance width="562"/>
  <unicode hex="0144"/>
  <outline>
    <contour>
      <point x="173" y="600" type="line"/>
      <point x="244" y="540" type="line"/>
      <point x="430" y="658" type="line"/>
      <point x="346" y="731" type="line"/>
    </contour>
    <contour>
      <point x="381" y="-5" type="line"/>
      <point x="476" y="15" type="line"/>
      <point x="475" y="127" type="line" smooth="yes"/>
      <point x="474" y="249"/>
      <point x="474" y="326"/>
      <point x="460" y="386" type="curve" smooth="yes"/>
      <point x="441" y="463"/>
      <point x="395" y="501"/>
      <point x="322" y="501" type="curve" smooth="yes"/>
      <point x="256" y="501"/>
      <point x="197" y="464"/>
      <point x="158" y="408" type="curve"/>
      <point x="158" y="507" type="line"/>
      <point x="62" y="489" type="line"/>
      <point x="62" y="-5" type="line"/>
      <point x="157" y="13" type="line"/>
      <point x="158" y="135" type="line" smooth="yes"/>
      <point x="158" y="193"/>
      <point x="178" y="266"/>
      <point x="205" y="319" type="curve"/>
      <point x="247" y="394"/>
      <point x="288" y="406"/>
      <point x="320" y="406" type="curve" smooth="yes"/>
      <point x="345" y="406"/>
      <point x="362" y="384"/>
      <point x="370" y="352" type="curve" smooth="yes"/>
      <point x="381" y="309"/>
      <point x="381" y="245"/>
      <point x="381" y="157" type="curve" smooth="yes"/>
    </contour>
  </outline>
</glyph>
<glyph name="ohungarumlaut" format="1">
  <advance width="581"/>
  <unicode hex="0151"/>
  <outline>
    <contour>
      <point x="382" y="0"/>
      <point x="490" y="122"/>
      <point x="490" y="268" type="curve" smooth="yes"/>
      <point x="490" y="393"/>
      <point x="400" y="500"/>
      <point x="283" y="500" type="curve" smooth="yes"/>
      <point x="156" y="500"/>
      <point x="49" y="377"/>
      <point x="49" y="232" type="curve" smooth="yes"/>
      <point x="49" y="105"/>
      <point x="138" y="0"/>
      <point x="255" y="0" type="curve" smooth="yes"/>
    </contour>
    <contour>
      <point x="341" y="411"/>
      <point x="391" y="343"/>
      <point x="391" y="264" type="curve" smooth="yes"/>
      <point x="391" y="170"/>
      <point x="326" y="89"/>
      <point x="255" y="89" type="curve" smooth="yes"/>
      <point x="190" y="89"/>
      <point x="146" y="156"/>
      <point x="146" y="234" type="curve" smooth="yes"/>
      <point x="146" y="328"/>
      <point x="207" y="411"/>
      <point x="279" y="411" type="curve" smooth="yes"/>
    </contour>
    <contour>
      <point x="84" y="597" type="line"/>
      <point x="157" y="535" type="line"/>
      <point x="337" y="656" type="line"/>
      <point x="261" y="731" type="line"/>
    </contour>
    <contour>
      <point x="303" y="597" type="line"/>
      <point x="366" y="535" type="line"/>
      <point x="557" y="656" type="line"/>
      <point x="480" y="731" type="line"/>
    </contour>
  </outline>
</glyph>
<glyph name="oe" format="1">
  <advance width="937"/>
  <unicode hex="0153"/>
  <outline>
    <contour>
      <point x="600" y="92"/>
      <point x="552" y="122"/>
      <point x="525" y="158" type="curve"/>
      <point x="621" y="212"/>
      <point x="833" y="338"/>
      <point x="833" y="338" type="curve"/>
      <point x="807" y="427"/>
      <point x="727" y="502"/>
      <point x="648" y="502" type="curve" smooth="yes"/>
      <point x="569" y="502"/>
      <point x="501" y="465"/>
      <point x="457" y="406" type="curve"/>
      <point x="419" y="467"/>
      <point x="358" y="500"/>
      <point x="291" y="500" type="curve" smooth="yes"/>
      <point x="164" y="500"/>
      <point x="56" y="377"/>
      <point x="56" y="232" type="curve" smooth="yes"/>
      <point x="56" y="105"/>
      <point x="145" y="0"/>
      <point x="263" y="0" type="curve" smooth="yes"/>
      <point x="338" y="0"/>
      <point x="406" y="43"/>
      <point x="449" y="107" type="curve"/>
      <point x="494" y="43"/>
      <point x="566" y="0"/>
      <point x="648" y="0" type="curve" smooth="yes"/>
      <point x="713" y="0"/>
      <point x="781" y="33"/>
      <point x="837" y="93" type="curve"/>
      <point x="771" y="156" type="line"/>
      <point x="732" y="115"/>
      <point x="689" y="92"/>
      <point x="648" y="92" type="curve" smooth="yes"/>
    </contour>
    <contour>
      <point x="399" y="171"/>
      <point x="332" y="89"/>
      <point x="263" y="89" type="curve" smooth="yes"/>
      <point x="197" y="89"/>
      <point x="154" y="156"/>
      <point x="154" y="234" type="curve" smooth="yes"/>
      <point x="154" y="328"/>
      <point x="215" y="411"/>
      <point x="286" y="411" type="curve" smooth="yes"/>
      <point x="349" y="411"/>
      <point x="399" y="343"/>
      <point x="399" y="264" type="curve" smooth="yes"/>
    </contour>
    <contour>
      <point x="497" y="247" type="line"/>
      <point x="497" y="334"/>
      <point x="558" y="410"/>
      <point x="648" y="410" type="curve" smooth="yes"/>
      <point x="674" y="410"/>
      <point x="703" y="396"/>
      <point x="722" y="375" type="curve"/>
    </contour>
  </outline>
</glyph>
<glyph name="racute" format="1">
  <advance width="427"/>
  <unicode hex="0155"/>
  <outline>
    <contour>
      <point x="108" y="600" type="line"/>
      <point x="179" y="540" type="line"/>
      <point x="365" y="658" type="line"/>
      <point x="281" y="731" type="line"/>
    </contour>
    <contour>
      <point x="387" y="415" type="line" smooth="yes"/>
      <point x="387" y="463"/>
      <point x="345" y="502"/>
      <point x="289" y="502" type="curve" smooth="yes"/>
      <point x="235" y="502"/>
      <point x="189" y="471"/>
      <point x="156" y="435" type="curve"/>
      <point x="156" y="507" type="line"/>
      <point x="59" y="489" type="line"/>
      <point x="59" y="-5" type="line"/>
      <point x="156" y="12" type="line"/>
      <point x="156" y="252" type="line" smooth="yes"/>
      <point x="156" y="328"/>
      <point x="218" y="407"/>
      <point x="273" y="407" type="curve" smooth="yes"/>
      <point x="286" y="407"/>
      <point x="291" y="395"/>
      <point x="291" y="387" type="curve" smooth="yes"/>
      <point x="291" y="340" type="line"/>
      <point x="387" y="356" type="line"/>
    </contour>
  </outline>
</glyph>
<glyph name="Rcaron" format="1">
  <advance width="620"/>
  <unicode hex="0158"/>
  <outline>
    <contour>
      <point x="392" y="897" type="line"/>
      <point x="281" y="812" type="line"/>
      <point x="189" y="897" type="line"/>
      <point x="124" y="825" type="line"/>
      <point x="276" y="701" type="line"/>
      <point x="450" y="824" type="line"/>
    </contour>
    <contour>
      <point x="160" y="587" type="line"/>
      <point x="175" y="587" type="line" smooth="yes"/>
      <point x="378" y="587"/>
      <point x="435" y="529"/>
      <point x="435" y="461" type="curve" smooth="yes"/>
      <point x="435" y="387"/>
      <point x="324" y="331"/>
      <point x="160" y="322" type="curve"/>
    </contour>
    <contour>
      <point x="325" y="202"/>
      <point x="403" y="143"/>
      <point x="484" y="-13" type="curve"/>
      <point x="560" y="52" type="line"/>
      <point x="501" y="163"/>
      <point x="435" y="233"/>
      <point x="385" y="273" type="curve"/>
      <point x="473" y="315"/>
      <point x="533" y="391"/>
      <point x="533" y="467" type="curve" smooth="yes"/>
      <point x="533" y="657"/>
      <point x="327" y="687"/>
      <point x="185" y="687" type="curve" smooth="yes"/>
      <point x="153" y="686"/>
      <point x="99" y="683"/>
      <point x="61" y="678" type="curve"/>
      <point x="61" y="-5" type="line"/>
      <point x="159" y="12" type="line"/>
      <point x="159" y="225" type="line"/>
      <point x="185" y="229"/>
      <point x="215" y="232"/>
      <point x="232" y="232" type="curve" smooth="yes"/>
      <point x="249" y="232"/>
      <point x="269" y="230"/>
      <point x="281" y="224" type="curve" smooth="yes"/>
    </contour>
  </outline>
</glyph>
<glyph name="sacute" format="1">
  <advance width="486"/>
  <unicode hex="015B"/>
  <outline>
    <contour>
      <point x="130" y="600" type="line"/>
      <point x="201" y="540" type="line"/>
      <point x="387" y="658" type="line"/>
      <point x="302" y="731" type="line"/>
    </contour>
    <contour>
      <point x="281" y="205"/>
      <point x="322" y="186"/>
      <point x="322" y="146" type="curve" smooth="yes"/>
      <point x="322" y="116"/>
      <point x="289" y="91"/>
      <point x="236" y="91" type="curve" smooth="yes"/>
      <point x="194" y="91"/>
      <point x="150" y="116"/>
      <point x="134" y="167" type="curve"/>
      <point x="40" y="151" type="line"/>
      <point x="67" y="55"/>
      <point x="151" y="0"/>
      <point x="236" y="0" type="curve" smooth="yes"/>
      <point x="295" y="0"/>
      <point x="418" y="33"/>
      <point x="418" y="155" type="curve" smooth="yes"/>
      <point x="418" y="229"/>
      <point x="364" y="279"/>
      <point x="253" y="310" type="curve" smooth="yes"/>
      <point x="197" y="326"/>
      <point x="169" y="340"/>
      <point x="169" y="366" type="curve" smooth="yes"/>
      <point x="169" y="391"/>
      <point x="187" y="416"/>
      <point x="254" y="417" type="curve" smooth="yes"/>
      <point x="286" y="417"/>
      <point x="326" y="406"/>
      <point x="326" y="372" type="curve" smooth="yes"/>
      <point x="326" y="364"/>
      <point x="326" y="349"/>
      <point x="319" y="329" type="curve"/>
      <point x="412" y="347" type="line"/>
      <point x="416" y="369"/>
      <point x="416" y="376"/>
      <point x="416" y="384" type="curve" smooth="yes"/>
      <point x="416" y="484"/>
      <point x="314" y="505"/>
      <point x="254" y="505" type="curve" smooth="yes"/>
      <point x="177" y="505"/>
      <point x="71" y="481"/>
      <point x="71" y="365" type="curve" smooth="yes"/>
      <point x="71" y="275"/>
      <point x="155" y="239"/>
      <point x="230" y="219" type="curve" smooth="yes"/>
    </contour>
  </outline>
</glyph>
<glyph name="Scedilla" format="1">
  <advance width="625"/>
  <unicode hex="015E"/>
  <outline>
    <contour>
      <point x="434" y="273"/>
      <point x="442" y="229"/>
      <point x="442" y="199" type="curve" smooth="yes"/>
      <point x="442" y="136"/>
      <point x="381" y="95"/>
      <point x="306" y="95" type="curve" smooth="yes"/>
      <point x="248" y="95"/>
      <point x="178" y="128"/>
      <point x="152" y="200" type="curve"/>
      <point x="48" y="184" type="line"/>
      <point x="79" y="89"/>
      <point x="158" y="22"/>
      <point x="254" y="4" type="curve"/>
      <point x="234" y="-54" type="line"/>
      <point x="276" y="-98" type="line"/>
      <point x="281" y="-93"/>
      <point x="292" y="-90"/>
      <point x="299" y="-90" type="curve" smooth="yes"/>
      <point x="319" y="-90"/>
      <point x="331" y="-99"/>
      <point x="331" y="-115" type="curve" smooth="yes"/>
      <point x="331" y="-130"/>
      <point x="319" y="-139"/>
      <point x="303" y="-139" type="curve" smooth="yes"/>
      <point x="289" y="-139"/>
      <point x="277" y="-132"/>
      <point x="271" y="-123" type="curve"/>
      <point x="227" y="-157" type="line"/>
      <point x="250" y="-186"/>
      <point x="272" y="-196"/>
      <point x="303" y="-196" type="curve" smooth="yes"/>
      <point x="355" y="-196"/>
      <point x="398" y="-167"/>
      <point x="398" y="-115" type="curve" smooth="yes"/>
      <point x="398" y="-60"/>
      <point x="360" y="-38"/>
      <point x="307" y="-33" type="curve"/>
      <point x="308" y="-1" type="line"/>
      <point x="413" y="0"/>
      <point x="548" y="63"/>
      <point x="548" y="200" type="curve" smooth="yes"/>
      <point x="548" y="298"/>
      <point x="475" y="365"/>
      <point x="327" y="406" type="curve" smooth="yes"/>
      <point x="240" y="430"/>
      <point x="195" y="459"/>
      <point x="195" y="502" type="curve" smooth="yes"/>
      <point x="195" y="537"/>
      <point x="217" y="588"/>
      <point x="330" y="588" type="curve" smooth="yes"/>
      <point x="375" y="588"/>
      <point x="450" y="572"/>
      <point x="450" y="513" type="curve" smooth="yes"/>
      <point x="450" y="508"/>
      <point x="449" y="484"/>
      <point x="442" y="470" type="curve"/>
      <point x="541" y="488" type="line"/>
      <point x="545" y="511"/>
      <point x="545" y="518"/>
      <point x="545" y="525" type="curve" smooth="yes"/>
      <point x="545" y="646"/>
      <point x="424" y="681"/>
      <point x="330" y="681" type="curve" smooth="yes"/>
      <point x="225" y="681"/>
      <point x="89" y="647"/>
      <point x="89" y="496" type="curve" smooth="yes"/>
      <point x="89" y="391"/>
      <point x="204" y="334"/>
      <point x="303" y="308" type="curve" smooth="yes"/>
    </contour>
  </outline>
</glyph>
<glyph name="uni0162" format="1">
  <advance width="548"/>
  <unicode hex="0162"/>
  <outline>
    <contour>
      <point x="208" y="-5" type="line"/>
      <point x="308" y="12" type="line"/>
      <point x="308" y="582" type="line"/>
      <point x="522" y="582" type="line"/>
      <point x="522" y="681" type="line"/>
      <point x="9" y="681" type="line"/>
      <point x="9" y="582" type="line"/>
      <point x="208" y="582" type="line"/>
    </contour>
    <contour>
      <point x="259" y="-16" type="line"/>
      <point x="171" y="-95" type="line"/>
      <point x="215" y="-119" type="line"/>
      <point x="164" y="-198" type="line"/>
      <point x="251" y="-247" type="line"/>
      <point x="360" y="-62" type="line"/>
    </contour>
  </outline>
</glyph>
<glyph name="tcaron" format="1">
  <advance width="455"/>
  <unicode hex="0165"/>
  <outline>
    <contour>
      <point x="357" y="751" type="line"/>
      <point x="281" y="684" type="line"/>
      <point x="324" y="660" type="line"/>
      <point x="275" y="574" type="line"/>
      <point x="359" y="526" type="line"/>
      <point x="446" y="696" type="line"/>
    </contour>
    <contour>
      <point x="352" y="502" type="line"/>
      <point x="226" y="502" type="line"/>
      <point x="226" y="660" type="line"/>
      <point x="134" y="644" type="line"/>
      <point x="134" y="502" type="line"/>
      <point x="8" y="502" type="line"/>
      <point x="8" y="406" type="line"/>
      <point x="134" y="406" type="line"/>
      <point x="134" y="-5" type="line"/>
      <point x="226" y="12" type="line"/>
      <point x="226" y="406" type="line"/>
      <point x="352" y="406" type="line"/>
    </contour>
  </outline>
</glyph>
<glyph name="Uring" format="1">
  <advance width="710"/>
  <unicode hex="016E"/>
  <outline>
    <contour>
      <point x="603" y="0"/>
      <point x="624" y="240"/>
      <point x="624" y="467" type="curve" smooth="yes"/>
      <point x="624" y="536"/>
      <point x="622" y="662"/>
      <point x="621" y="685" type="curve"/>
      <point x="522" y="666" type="line"/>
      <point x="523" y="633"/>
      <point x="525" y="502"/>
      <point x="525" y="425" type="curve" smooth="yes"/>
      <point x="525" y="276"/>
      <point x="512" y="92"/>
      <point x="343" y="92" type="curve" smooth="yes"/>
      <point x="180" y="92"/>
      <point x="162" y="260"/>
      <point x="162" y="443" type="curve" smooth="yes"/>
      <point x="162" y="521"/>
      <point x="164" y="664"/>
      <point x="165" y="685" type="curve"/>
      <point x="66" y="668" type="line"/>
      <point x="65" y="640"/>
      <point x="63" y="516"/>
      <point x="63" y="451" type="curve" smooth="yes"/>
      <point x="63" y="194"/>
      <point x="103" y="0"/>
      <point x="343" y="0" type="curve" smooth="yes"/>
    </contour>
    <contour>
      <point x="414" y="702"/>
      <point x="492" y="744"/>
      <point x="492" y="828" type="curve" smooth="yes"/>
      <point x="492" y="887"/>
      <point x="442" y="942"/>
      <point x="363" y="942" type="curve" smooth="yes"/>
      <point x="281" y="942"/>
      <point x="215" y="886"/>
      <point x="215" y="815" type="curve" smooth="yes"/>
      <point x="215" y="752"/>
      <point x="268" y="702"/>
      <point x="344" y="702" type="curve" smooth="yes"/>
    </contour>
    <contour>
      <point x="386" y="857"/>
      <point x="408" y="843"/>
      <point x="408" y="826" type="curve" smooth="yes"/>
      <point x="408" y="803"/>
      <point x="374" y="786"/>
      <point x="346" y="786" type="curve" smooth="yes"/>
      <point x="321" y="786"/>
      <point x="301" y="798"/>
      <point x="301" y="815" type="curve" smooth="yes"/>
      <point x="301" y="842"/>
      <point x="337" y="857"/>
      <point x="360" y="857" type="curve" smooth="yes"/>
    </contour>
  </outline>
</glyph>
<glyph name="uring" format="1">
  <advance width="541"/>
  <unicode hex="016F"/>
  <outline>
    <contour>
      <point x="157" y="359"/>
      <point x="175" y="488"/>
      <point x="178" y="509" type="curve"/>
      <point x="79" y="492" type="line"/>
      <point x="67" y="418"/>
      <point x="62" y="328"/>
      <point x="62" y="286" type="curve" smooth="yes"/>
      <point x="62" y="146"/>
      <point x="61" y="-5"/>
      <point x="223" y="-5" type="curve" smooth="yes"/>
      <point x="273" y="-5"/>
      <point x="322" y="14"/>
      <point x="356" y="36" type="curve"/>
      <point x="356" y="-4" type="line"/>
      <point x="458" y="12" type="line"/>
      <point x="458" y="508" type="line"/>
      <point x="359" y="491" type="line"/>
      <point x="359" y="167" type="line" smooth="yes"/>
      <point x="359" y="155"/>
      <point x="357" y="147"/>
      <point x="353" y="143" type="curve" smooth="yes"/>
      <point x="335" y="125"/>
      <point x="281" y="85"/>
      <point x="226" y="85" type="curve" smooth="yes"/>
      <point x="157" y="85"/>
      <point x="157" y="186"/>
      <point x="157" y="286" type="curve" smooth="yes"/>
    </contour>
    <contour>
      <point x="341" y="542"/>
      <point x="419" y="584"/>
      <point x="419" y="668" type="curve" smooth="yes"/>
      <point x="419" y="727"/>
      <point x="369" y="782"/>
      <point x="290" y="782" type="curve" smooth="yes"/>
      <point x="208" y="782"/>
      <point x="142" y="726"/>
      <point x="142" y="655" type="curve" smooth="yes"/>
      <point x="142" y="592"/>
      <point x="195" y="542"/>
      <point x="271" y="542" type="curve" smooth="yes"/>
    </contour>
    <contour>
      <point x="313" y="697"/>
      <point x="335" y="683"/>
      <point x="335" y="666" type="curve" smooth="yes"/>
      <point x="335" y="643"/>
      <point x="301" y="626"/>
      <point x="273" y="626" type="curve" smooth="yes"/>
      <point x="248" y="626"/>
      <point x="228" y="638"/>
      <point x="228" y="655" type="curve" smooth="yes"/>
      <point x="228" y="682"/>
      <point x="264" y="697"/>
      <point x="287" y="697" type="curve" smooth="yes"/>
    </contour>
  </outline>
</glyph>
<glyph name="Zdotaccent" format="1">
  <advance width="647"/>
  <unicode hex="017B"/>
  <outline>
    <contour>
      <point x="77" y="0" type="line"/>
      <point x="557" y="0" type="line"/>
      <point x="574" y="103" type="line"/>
      <point x="182" y="103" type="line"/>
      <point x="583" y="603" type="line"/>
      <point x="547" y="681" type="line"/>
      <point x="87" y="681" type="line"/>
      <point x="70" y="578" type="line"/>
      <point x="442" y="578" type="line"/>
      <point x="41" y="77" type="line"/>
    </contour>
    <contour>
      <point x="377" y="834" type="line"/>
      <point x="261" y="819" type="line"/>
      <point x="247" y="704" type="line"/>
      <point x="365" y="720" type="line"/>
    </contour>
  </outline>
</glyph>
<glyph name="zdotaccent" format="1">
  <advance width="479"/>
  <unicode hex="017C"/>
  <outline>
    <contour>
      <point x="303" y="672" type="line"/>
      <point x="191" y="658" type="line"/>
      <point x="177" y="546" type="line"/>
      <point x="292" y="561" type="line"/>
    </contour>
    <contour>
      <point x="411" y="0" type="line"/>
      <point x="428" y="96" type="line"/>
      <point x="166" y="96" type="line"/>
      <point x="434" y="435" type="line"/>
      <point x="402" y="502" type="line"/>
      <point x="59" y="502" type="line"/>
      <point x="42" y="406" type="line"/>
      <point x="291" y="406" type="line"/>
      <point x="22" y="68" type="line"/>
      <point x="55" y="0" type="line"/>
    </contour>
  </outline>
</glyph>
<glyph name="caron" format="1">
  <advance width="526"/>
  <unicode hex="02C7"/>
  <outline>
    <contour>
      <point x="353" y="702" type="line"/>
      <point x="245" y="619" type="line"/>
      <point x="156" y="702" type="line"/>
      <point x="92" y="632" type="line"/>
      <point x="241" y="492" type="line"/>
      <point x="410" y="627" type="line"/>
    </contour>
  </outline>
</glyph>
<glyph name="breve" format="1">
  <advance width="526"/>
  <unicode hex="02D8"/>
  <outline>
    <contour>
      <point x="224" y="596"/>
      <point x="189" y="609"/>
      <point x="151" y="678" type="curve"/>
      <point x="91" y="617" type="line"/>
      <point x="120" y="552"/>
      <point x="183" y="508"/>
      <point x="256" y="508" type="curve" smooth="yes"/>
      <point x="323" y="508"/>
      <point x="389" y="555"/>
      <point x="412" y="622" type="curve"/>
      <point x="348" y="686" type="line"/>
      <point x="327" y="629"/>
      <point x="297" y="596"/>
      <point x="251" y="596" type="curve" smooth="yes"/>
    </contour>
  </outline>
</glyph>
<glyph name="dotaccent" format="1">
  <advance width="526"/>
  <unicode hex="02D9"/>
  <outline>
    <contour>
      <point x="314" y="630" type="line"/>
      <point x="202" y="616" type="line"/>
      <point x="188" y="494" type="line"/>
      <point x="303" y="509" type="line"/>
    </contour>
  </outline>
</glyph>
<glyph name="hungarumlaut" format="1">
  <advance width="526"/>
  <unicode hex="02DD"/>
  <outline>
    <contour>
      <point x="21" y="570" type="line"/>
      <point x="92" y="510" type="line"/>
      <point x="267" y="638" type="line"/>
      <point x="193" y="711" type="line"/>
    </contour>
    <contour>
      <point x="236" y="570" type="line"/>
      <point x="298" y="510" type="line"/>
      <point x="484" y="638" type="line"/>
      <point x="409" y="711" type="line"/>
    </contour>
  </outline>
</glyph>
<glyph name="quoteleft" format="1">
  <advance width="208"/>
  <unicode hex="2018"/>
  <outline>
    <contour>
      <point x="104" y="489" type="line"/>
      <point x="189" y="577" type="line"/>
      <point x="146" y="600" type="line"/>
      <point x="195" y="687" type="line"/>
      <point x="111" y="735" type="line"/>
      <point x="4" y="545" type="line"/>
    </contour>
  </outline>
</glyph>
<glyph name="quoteright" format="1">
  <advance width="208"/>
  <unicode hex="2019"/>
  <outline>
    <contour>
      <point x="96" y="732" type="line"/>
      <point x="11" y="645" type="line"/>
      <point x="53" y="621" type="line"/>
      <point x="4" y="535" type="line"/>
      <point x="89" y="487" type="line"/>
      <point x="195" y="677" type="line"/>
    </contour>
  </outline>
</glyph>
<glyph name="quotedblright" format="1">
  <advance width="374"/>
  <unicode hex="201D"/>
  <outline>
    <contour>
      <point x="80" y="732" type="line"/>
      <point x="-5" y="645" type="line"/>
      <point x="37" y="621" type="line"/>
      <point x="-12" y="535" type="line"/>
      <point x="73" y="487" type="line"/>
      <point x="179" y="677" type="line"/>
    </contour>
    <contour>
      <point x="271" y="732" type="line"/>
      <point x="185" y="645" type="line"/>
      <point x="228" y="621" type="line"/>
      <point x="179" y="535" type="line"/>
      <point x="264" y="487" type="line"/>
      <point x="370" y="677" type="line"/>
    </contour>
  </outline>
</glyph>
<glyph name="ellipsis" format="1">
  <advance width="760"/>
  <unicode hex="2026"/>
  <outline>
    <contour>
      <point x="192" y="133" type="line"/>
      <point x="80" y="118" type="line"/>
      <point x="66" y="-4" type="line"/>
      <point x="180" y="12" type="line"/>
    </contour>
    <contour>
      <point x="425" y="133" type="line"/>
      <point x="312" y="118" type="line"/>
      <point x="299" y="-4" type="line"/>
      <point x="413" y="12" type="line"/>
    </contour>
    <contour>
      <point x="658" y="133" type="line"/>
      <point x="545" y="118" type="line"/>
      <point x="532" y="-4" type="line"/>
      <point x="646" y="12" type="line"/>
    </contour>
  </outline>
</glyph>
<glyph name="guilsinglleft" format="1">
  <advance width="430"/>
  <unicode hex="2039"/>
  <outline>
    <contour>
      <point x="275" y="49" type="line"/>
      <point x="339" y="119" type="line"/>
      <point x="196" y="248" type="line"/>
      <point x="354" y="384" type="line"/>
      <point x="293" y="455" type="line"/>
      <point x="53" y="251" type="line"/>
    </contour>
  </outline>
</glyph>
<glyph name="guilsinglright" format="1">
  <advance width="430"/>
  <unicode hex="203A"/>
  <outline>
    <contour>
      <point x="139" y="51" type="line"/>
      <point x="361" y="253" type="line"/>
      <point x="121" y="457" type="line"/>
      <point x="60" y="386" type="line"/>
      <point x="217" y="252" type="line"/>
      <point x="73" y="121" type="line"/>
    </contour>
  </outline>
</glyph>
<glyph name="Euro" format="1">
  <advance width="689"/>
  <unicode hex="20AC"/>
  <outline>
    <contour>
      <point x="474" y="0"/>
      <point x="543" y="25"/>
      <point x="603" y="66" type="curve"/>
      <point x="534" y="132" type="line"/>
      <point x="498" y="110"/>
      <point x="457" y="95"/>
      <point x="407" y="95" type="curve" smooth="yes"/>
      <point x="328" y="95"/>
      <point x="257" y="145"/>
      <point x="231" y="227" type="curve"/>
      <point x="429" y="227" type="line"/>
      <point x="446" y="315" type="line"/>
      <point x="223" y="315" type="line"/>
      <point x="224" y="333"/>
      <point x="227" y="352"/>
      <point x="232" y="370" type="curve"/>
      <point x="448" y="370" type="line"/>
      <point x="465" y="457" type="line"/>
      <point x="263" y="457" type="line"/>
      <point x="294" y="517"/>
      <point x="357" y="579"/>
      <point x="419" y="579" type="curve" smooth="yes"/>
      <point x="469" y="579"/>
      <point x="509" y="557"/>
      <point x="539" y="533" type="curve"/>
      <point x="607" y="597" type="line"/>
      <point x="553" y="646"/>
      <point x="489" y="674"/>
      <point x="424" y="674" type="curve" smooth="yes"/>
      <point x="283" y="674"/>
      <point x="191" y="534"/>
      <point x="163" y="457" type="curve"/>
      <point x="73" y="457" type="line"/>
      <point x="56" y="370" type="line"/>
      <point x="138" y="370" type="line"/>
      <point x="134" y="352"/>
      <point x="133" y="333"/>
      <point x="131" y="315" type="curve"/>
      <point x="73" y="315" type="line"/>
      <point x="56" y="227" type="line"/>
      <point x="136" y="227" type="line"/>
      <point x="153" y="94"/>
      <point x="275" y="0"/>
      <point x="413" y="0" type="curve" smooth="yes"/>
    </contour>
  </outline>
</glyph>
